<svg width="44" height="44" viewBox="0 0 44 44" fill="none" xmlns="http://www.w3.org/2000/svg">
<path d="M22 44C34.1503 44 44 34.1503 44 22C44 9.84973 34.1503 0 22 0C9.84973 0 0 9.84973 0 22C0 34.1503 9.84973 44 22 44Z" fill="#ED6B1D"/>
<path d="M28.1221 34.375C26.682 34.2344 25.2777 33.8436 23.9724 33.2204C17.5269 30.0908 12.802 25.3341 10.2061 18.5941C9.94383 17.8331 9.75566 17.0487 9.64427 16.2516C9.59249 15.9323 9.64574 15.6048 9.79601 15.3182C10.8988 13.3111 12.379 11.535 14.1558 10.0873C15.0244 9.38853 15.8947 9.47336 16.5049 10.4001C17.5719 12.0139 18.6006 13.6611 19.5192 15.3614C20.2211 16.6592 20.0511 17.1051 18.9474 18.0867C18.6732 18.3469 18.3849 18.5918 18.0838 18.8204C17.7954 19.0251 17.7503 19.233 17.8821 19.5558C19.1425 22.6621 21.3182 24.8433 24.4326 26.0978C24.746 26.2242 24.9544 26.2125 25.1762 25.9181C25.4963 25.4938 25.8697 25.1111 26.2232 24.7135C26.78 24.0862 27.4536 23.9066 28.2239 24.2659C29.0158 24.6353 29.8127 25.0047 30.558 25.4506C31.5466 26.0379 32.5003 26.685 33.4506 27.3339C34.3225 27.9312 34.8077 28.8313 33.8507 29.9411C32.3932 31.6389 30.6512 33.071 28.7023 34.1737C28.5169 34.2617 28.3223 34.3292 28.1221 34.375Z" fill="white"/>
</svg>
