<svg width="45" height="45" viewBox="0 0 45 45" fill="none" xmlns="http://www.w3.org/2000/svg">
<g clip-path="url(#clip0_250_551)">
<path d="M22.5 45C34.9264 45 45 34.9264 45 22.5C45 10.0736 34.9264 0 22.5 0C10.0736 0 0 10.0736 0 22.5C0 34.9264 10.0736 45 22.5 45Z" fill="#ED6B1D"/>
<path d="M22.5 9.41211C24.8716 9.41882 27.1549 10.3131 28.9003 11.9188C30.6457 13.5246 31.7268 15.7255 31.9308 18.0884C32.1153 20.3241 31.449 22.3588 30.541 24.3332C28.6957 28.3406 26.0845 31.8452 23.2365 35.1733C22.7907 35.6942 22.2566 35.735 21.8337 35.2451C18.6297 31.4891 15.6918 27.5699 13.8693 22.9222C12.9124 20.4841 12.705 18.0231 13.6489 15.5115C14.3397 13.7226 15.5539 12.1836 17.1329 11.0955C18.7119 10.0073 20.5824 9.42068 22.5 9.41211ZM22.4836 23.6309C23.1102 23.634 23.7313 23.5131 24.3111 23.2754C24.8909 23.0377 25.418 22.6878 25.8622 22.2458C26.3063 21.8037 26.6588 21.2783 26.8992 20.6996C27.1397 20.121 27.2635 19.5006 27.2635 18.8739C27.2525 17.6173 26.7488 16.4151 25.8608 15.5259C24.9728 14.6366 23.7713 14.1313 22.5147 14.1185C21.2494 14.1232 20.0373 14.6277 19.1423 15.5221C18.2473 16.4165 17.742 17.6282 17.7364 18.8935C17.7407 20.1503 18.2426 21.3543 19.1322 22.2421C20.0218 23.1299 21.2268 23.6292 22.4836 23.6309Z" fill="white"/>
</g>
<defs>
<clipPath id="clip0_250_551">
<rect width="45" height="45" fill="white"/>
</clipPath>
</defs>
</svg>
