<svg width="186" height="43" viewBox="0 0 186 43" fill="none" xmlns="http://www.w3.org/2000/svg">
<g clip-path="url(#clip0_0_36)">
<path d="M74.1414 0.255493C73.6995 0.185201 73.2487 0.185201 72.8068 0.255493L66.4934 1.03414C65.3535 1.09292 64.2111 1.09292 63.0711 1.03414L58.0296 0.271716C56.9669 0.109497 53.4859 0.486655 53.4859 3.51608C53.4859 5.41403 54.9796 6.84561 57.1468 6.84561C57.6195 6.84561 63.0041 6.09129 63.0041 6.09129C64.2958 6.01829 65.5908 6.01829 66.8825 6.09129L71.1667 6.63473C71.6056 6.68499 72.0413 6.75809 72.4721 6.85372C73.1358 7.0123 73.8292 7.0123 74.4929 6.85372C75.2012 6.7101 75.8496 6.36601 76.356 5.865C76.8625 5.36399 77.2042 4.72858 77.3379 4.03923C77.5847 2.17372 76.1204 0.559653 74.1414 0.255493Z" fill="#ED6B1D"/>
<path d="M54.8038 9.96831C54.6685 11.6856 55.2231 13.3871 56.3519 14.7172C56.3946 14.7645 56.422 14.8229 56.4308 14.8851C56.4396 14.9473 56.4293 15.0107 56.4012 15.0673C56.3731 15.1239 56.3285 15.1713 56.2728 15.2035C56.2172 15.2357 56.153 15.2514 56.0883 15.2485H55.8665C55.3242 15.2562 54.7906 15.1157 54.3269 14.843C52.691 13.8413 52.6534 11.6229 54.2014 9.77365C54.2435 9.71918 54.3023 9.67893 54.3693 9.65863C54.4364 9.63833 54.5083 9.63899 54.575 9.66053C54.6416 9.68206 54.6996 9.72337 54.7407 9.77861C54.7817 9.83385 54.8038 9.90022 54.8038 9.96831Z" fill="#00ABAC"/>
<path d="M74.8234 10.9295L74.8443 11.5905C74.853 11.8324 74.8068 12.0733 74.709 12.2961C74.6111 12.5188 74.4641 12.7181 74.2781 12.8797C74.0922 13.0414 73.872 13.1615 73.6329 13.2317C73.3939 13.3018 73.1419 13.3202 72.8947 13.2857C70.1794 12.9045 65.3638 12.4746 62.5732 13.6182C59.8495 14.7294 57.5777 16.38 56.3728 13.0099C55.1678 9.63982 57.0505 8.3948 61.1925 8.49618C64.3136 8.56107 70.4387 9.08017 73.2712 9.33161C73.686 9.36978 74.0723 9.55299 74.3579 9.84703C74.6435 10.1411 74.809 10.5258 74.8234 10.9295Z" fill="#00ABAC"/>
<path d="M60.5775 27.6542C60.5775 27.6542 60.498 20.6098 61.1047 19.4216C61.7113 18.2333 63.6484 17.4303 62.3807 16.0799C61.8745 15.5405 60.1759 16.5746 58.791 16.5909C56.6991 16.6152 54.1553 15.7189 54.7411 17.5966C55.7201 20.7153 56.2431 27.5649 56.2431 27.5649L60.5775 27.6542Z" fill="#00ABAC"/>
<path d="M99.6836 0.255494C99.2403 0.185191 98.7882 0.185191 98.3448 0.255494L92.0273 1.03414C90.8859 1.09294 89.7421 1.09294 88.6007 1.03414L83.5592 0.271716C82.5007 0.109498 79.0198 0.486655 79.0198 3.51608C79.0198 5.41403 80.5134 6.84561 82.6764 6.84561C83.1534 6.84561 88.5129 6.09129 88.5129 6.09129C89.806 6.0183 91.1023 6.0183 92.3954 6.09129L96.6755 6.63473C97.1157 6.68534 97.5528 6.75843 97.985 6.85372C98.6473 7.01228 99.3394 7.01228 100.002 6.85372C100.71 6.7106 101.359 6.36667 101.865 5.86557C102.372 5.36447 102.713 4.7288 102.847 4.03923C103.123 2.17373 101.663 0.559653 99.6836 0.255494Z" fill="#ED6B1D"/>
<path d="M80.346 9.96831C80.21 11.685 80.7631 13.3863 81.8899 14.7173C81.9326 14.7645 81.9601 14.8229 81.9688 14.8851C81.9776 14.9473 81.9673 15.0107 81.9392 15.0673C81.9111 15.1239 81.8665 15.1713 81.8108 15.2035C81.7552 15.2357 81.691 15.2514 81.6263 15.2485H81.4087C80.8651 15.2561 80.3302 15.1156 79.8649 14.843C78.229 13.8413 78.2165 11.6229 79.7394 9.77365C79.781 9.71745 79.84 9.67559 79.9079 9.6542C79.9757 9.6328 80.0488 9.63298 80.1166 9.65472C80.1843 9.67646 80.2431 9.71861 80.2844 9.77502C80.3257 9.83143 80.3473 9.89916 80.346 9.96831Z" fill="#00ABAC"/>
<path d="M100.361 10.9295L100.387 11.5905C100.395 11.8326 100.348 12.0736 100.249 12.2963C100.151 12.519 100.004 12.7182 99.8175 12.8798C99.6312 13.0414 99.4107 13.1614 99.1715 13.2316C98.9323 13.3017 98.6801 13.3202 98.4327 13.2857C95.7216 12.9045 90.9018 12.4746 88.1154 13.6182C85.3875 14.7294 83.0948 16.38 81.915 13.0099C80.7351 9.63982 82.5886 8.3948 86.7347 8.49618C89.8559 8.56107 95.9768 9.08017 98.8092 9.33161C99.224 9.36978 99.6103 9.55299 99.8959 9.84703C100.182 10.1411 100.347 10.5258 100.361 10.9295Z" fill="#00ABAC"/>
<path d="M86.1155 27.6542C86.1155 27.6542 86.0402 20.6098 86.6469 19.4216C87.2535 18.2333 89.1864 17.4303 87.902 16.0799C87.3958 15.5405 85.6971 16.5746 84.3165 16.5909C82.2246 16.6152 79.6766 15.7189 80.2665 17.5966C81.2414 20.7153 81.7644 27.5649 81.7644 27.5649L86.1155 27.6542Z" fill="#00ABAC"/>
<path d="M16.384 8.56886C16.3329 8.06287 16.2147 7.56537 16.0325 7.08862C14.974 4.5499 11.8069 4.5499 11.2212 4.5499C7.93686 4.5499 6.76122 6.06664 6.76122 7.65638C6.749 7.92026 6.79117 8.18385 6.88527 8.43175C6.97938 8.67964 7.12354 8.90686 7.3093 9.10012C7.97452 9.81794 8.6774 9.97204 10.3593 10.4628C12.5893 11.0711 14.8946 11.5253 17.0534 12.2472C19.0072 12.8879 20.6892 13.7598 21.8606 15.3901C22.7154 16.5772 23.1553 17.9985 23.1158 19.4456C23.1791 21.2521 22.5869 23.023 21.4422 24.45C19.9528 26.3439 17.2166 28.1243 11.899 28.1243C4.97474 28.1243 1.85777 25.0543 0.711409 22.2114C0.219645 21.0449 -0.0195932 19.7929 0.0085304 18.5331H5.95374C5.95023 19.4283 6.16376 20.3118 6.57713 21.1124C8.06657 23.6146 11.6647 23.5781 12.2086 23.5781C12.8953 23.5887 13.5804 23.511 14.2461 23.3469C16.7062 22.7062 17.2166 20.9623 17.2166 19.9728C17.2294 19.6199 17.1584 19.2688 17.0089 18.9468C16.8595 18.6247 16.6356 18.3402 16.3547 18.1154C15.3004 17.3043 12.447 16.6757 11.2337 16.3351C10.0204 15.9944 8.8866 15.6902 7.75278 15.3131C4.97473 14.4412 2.47281 13.5692 1.45614 10.6128C1.17795 9.77965 1.03676 8.90925 1.03776 8.03354C1.04024 6.8217 1.3354 5.62726 1.89962 4.54585C3.07109 2.38429 5.84915 -0.00437564 11.5224 -0.00437564C12.8386 -0.0256635 14.1525 0.110547 15.4343 0.40117C16.6894 0.741828 20.4005 1.95441 21.6514 5.82332C21.9119 6.72421 22.0525 7.65368 22.0698 8.58914L16.384 8.56886Z" fill="#00ABAC"/>
<path d="M51.2727 27.4554H44.9342L42.7419 21.4574H32.4999L30.2323 27.4554H24.0109L34.5332 0.689426H40.809L51.2727 27.4554ZM37.6627 6.67122L33.9475 17.2154H41.2608L37.6627 6.67122Z" fill="#00ABAC"/>
<path d="M117.599 1.09497C118.343 1.09497 119.046 1.09497 119.749 1.13147C120.925 1.20853 124.209 1.35858 126.36 4.16495C127.326 5.49331 127.819 7.09066 127.765 8.71518C127.795 9.85073 127.535 10.9758 127.008 11.9904C126.481 13.0049 125.704 13.8776 124.745 14.5307C124.315 14.8072 123.855 15.0358 123.372 15.212C124.052 15.3798 124.687 15.6866 125.234 16.1119C125.781 16.5372 126.227 17.0711 126.544 17.6777C127.167 18.9268 127.381 20.9221 127.56 22.228C127.636 22.8728 127.715 23.5176 127.753 24.1584C127.991 26.1861 128.067 26.9647 128.77 27.8367H122.494C122.162 27.1341 121.977 26.3745 121.95 25.6021C121.753 23.9312 121.791 22.2645 121.402 20.6342C121.322 20.2935 121.05 18.9674 120.034 18.2009C118.9 17.329 117.645 17.329 116.318 17.329H110.938V27.8285H104.955V1.09497H117.599ZM110.938 13.091H116.649C118.214 13.0545 118.996 12.9775 119.699 12.7098C121.732 11.8987 121.791 9.90748 121.791 9.29916C121.839 8.46668 121.575 7.64543 121.046 6.98755C120.301 6.11563 119.168 5.66142 116.862 5.66142H110.938V13.091Z" fill="#00ABAC"/>
<path d="M154.245 3.69047C156.044 5.31265 158.583 8.61785 158.583 14.4536C158.583 16.2745 158.391 22.378 153.111 26.1334C151.739 27.1188 149.279 28.518 145.132 28.518C143.172 28.5284 141.229 28.1546 139.422 27.4189C136.254 26.0563 131.598 22.4916 131.598 14.4415C131.569 12.291 131.968 10.1554 132.773 8.15147C134.865 3.11054 139.656 0.340661 145.208 0.377161C146.814 0.389327 150.839 0.579933 154.245 3.69047ZM141.965 5.92502C137.702 8.05008 137.74 13.4682 137.74 14.3806C137.74 14.9849 137.74 18.5862 139.539 20.9748C140.195 21.8283 141.051 22.5179 142.037 22.9862C143.023 23.4545 144.11 23.6881 145.208 23.6676C146.575 23.6774 147.912 23.2811 149.04 22.5321C152.521 20.18 152.446 15.139 152.446 14.3401C152.446 11.6878 151.781 8.61785 149.551 6.76045C148.332 5.72197 146.754 5.16728 145.132 5.20721C144.032 5.19244 142.945 5.43888 141.965 5.92502Z" fill="#00ABAC"/>
<path d="M186 27.8367H179.971L168.558 9.37621L168.675 27.8367H162.847V1.09497H168.989L180.285 19.4419L180.172 1.09497H186V27.8367Z" fill="#00ABAC"/>
<path d="M185.904 38.8999H157.065V40.072H185.904V38.8999Z" fill="#3C3C3B"/>
<path d="M29.9896 38.8999H0.0962296V40.072H29.9896V38.8999Z" fill="#3C3C3B"/>
<path d="M34.4035 42.5458C33.8495 42.2507 33.3905 41.8128 33.0773 41.2805C32.7563 40.7225 32.5878 40.0943 32.5878 39.4555C32.5878 38.8167 32.7563 38.1885 33.0773 37.6306C33.3931 37.1013 33.8516 36.6653 34.4035 36.3693C34.9676 36.0712 35.5998 35.9149 36.2423 35.9149C36.8848 35.9149 37.517 36.0712 38.0811 36.3693C38.6328 36.6643 39.0902 37.1006 39.4032 37.6306C39.7189 38.1902 39.8843 38.8177 39.8843 39.4555C39.8843 40.0933 39.7189 40.7209 39.4032 41.2805C39.0927 41.8134 38.6348 42.2516 38.0811 42.5458C37.517 42.8439 36.8848 43.0002 36.2423 43.0002C35.5998 43.0002 34.9676 42.8439 34.4035 42.5458ZM37.4996 41.6982C37.8737 41.4882 38.1762 41.1767 38.3698 40.8019C38.586 40.3832 38.6937 39.9196 38.6836 39.4515C38.6942 38.9858 38.5864 38.5248 38.3698 38.1091C38.1747 37.7375 37.8724 37.4289 37.4996 37.221C37.1132 37.0214 36.6822 36.9171 36.2444 36.9171C35.8066 36.9171 35.3756 37.0214 34.9893 37.221C34.6186 37.4303 34.318 37.7386 34.1232 38.1091C33.9066 38.5248 33.7989 38.9858 33.8094 39.4515C33.7994 39.9196 33.9071 40.3832 34.1232 40.8019C34.3165 41.1756 34.6173 41.4869 34.9893 41.6982C35.374 41.9027 35.8057 42.0098 36.2444 42.0098C36.6832 42.0098 37.1148 41.9027 37.4996 41.6982Z" fill="#3C3C3B"/>
<path d="M44.7459 42.9311L43.1017 40.1612H42.2063V42.9311H41.0349V36.0043H43.5033C43.984 35.9903 44.4613 36.0862 44.8966 36.2842C45.2434 36.4501 45.5338 36.7091 45.7333 37.0304C45.9227 37.3481 46.0196 37.7097 46.0136 38.0767C46.0107 38.5149 45.8642 38.941 45.5953 39.2933C45.2874 39.6856 44.84 39.953 44.3401 40.0436L46.1057 42.9148L44.7459 42.9311ZM42.2063 39.2528H43.5033C43.682 39.2659 43.8615 39.2448 44.0317 39.1905C44.2018 39.1362 44.3593 39.0499 44.4949 38.9364C44.6082 38.8228 44.6963 38.6879 44.7538 38.5401C44.8114 38.3922 44.8372 38.2345 44.8296 38.0767C44.8386 37.9221 44.8139 37.7674 44.7569 37.6227C44.6999 37.478 44.6121 37.3467 44.4991 37.2372C44.2204 37.0145 43.8634 36.9055 43.5033 36.933H42.2063V39.2528Z" fill="#3C3C3B"/>
<path d="M52.1471 36.0043V36.933H50.2435V42.9311H49.072V36.933H47.16V36.0043H52.1471Z" fill="#3C3C3B"/>
<path d="M59.0337 36.0043V42.9311H57.8622V39.9016H54.5152V42.9311H53.3437V36.0043H54.5152V38.9729H57.8622V36.0043H59.0337Z" fill="#3C3C3B"/>
<path d="M61.9874 42.5458C61.4343 42.2495 60.9756 41.8119 60.6612 41.2805C60.3429 40.7217 60.1759 40.0938 60.1759 39.4555C60.1759 38.8172 60.3429 38.1894 60.6612 37.6306C60.9794 37.1052 61.4375 36.6724 61.9874 36.3774C62.5523 36.0793 63.1852 35.9231 63.8283 35.9231C64.4715 35.9231 65.1044 36.0793 65.6692 36.3774C66.2188 36.6736 66.6745 37.1097 66.9871 37.6387C67.3054 38.1975 67.4723 38.8253 67.4723 39.4636C67.4723 40.1019 67.3054 40.7298 66.9871 41.2886C66.677 41.8204 66.2208 42.2585 65.6692 42.5539C65.1044 42.8521 64.4715 43.0083 63.8283 43.0083C63.1852 43.0083 62.5523 42.8521 61.9874 42.5539V42.5458ZM65.0876 41.6982C65.4596 41.4869 65.7605 41.1756 65.9537 40.8019C66.1699 40.3832 66.2776 39.9196 66.2675 39.4515C66.2781 38.9858 66.1703 38.5248 65.9537 38.1091C65.759 37.7386 65.4583 37.4303 65.0876 37.221C64.7013 37.0214 64.2702 36.9171 63.8325 36.9171C63.3947 36.9171 62.9637 37.0214 62.5773 37.221C62.2045 37.4289 61.9022 37.7375 61.7071 38.1091C61.4905 38.5248 61.3827 38.9858 61.3933 39.4515C61.3832 39.9196 61.4909 40.3832 61.7071 40.8019C61.9007 41.1767 62.2032 41.4882 62.5773 41.6982C62.9621 41.9027 63.3937 42.0098 63.8325 42.0098C64.2712 42.0098 64.7029 41.9027 65.0876 41.6982Z" fill="#3C3C3B"/>
<path d="M73.3674 39.0662C73.1752 39.3961 72.8832 39.6608 72.5307 39.8246C72.0796 40.0385 71.5807 40.1403 71.0789 40.1206H69.7861V42.9311H68.6146V36.0043H71.0789C71.559 35.9911 72.0358 36.0855 72.4721 36.2801C72.8203 36.4422 73.1114 36.7004 73.3089 37.0222C73.4997 37.3396 73.598 37.7012 73.5934 38.0686C73.6042 38.4141 73.5266 38.7568 73.3674 39.0662ZM72.1123 38.8999C72.2245 38.7918 72.3117 38.6617 72.368 38.5184C72.4243 38.375 72.4483 38.2217 72.4386 38.0686C72.4386 37.3102 71.9993 36.933 71.1124 36.933H69.8195V39.1919H71.1124C71.466 39.2149 71.8159 39.111 72.0955 38.8999H72.1123Z" fill="#3C3C3B"/>
<path d="M79.0532 41.5157H76.0618L75.5472 42.9311H74.3255L76.8818 35.9962H78.2416L80.7979 42.9311H79.5428L79.0532 41.5157ZM78.7227 40.587L77.5596 37.371L76.3882 40.587H78.7227Z" fill="#3C3C3B"/>
<path d="M83.0822 36.9209V38.9486H85.5465V39.8732H83.0822V41.9942H85.8561V42.9229H81.9108V35.9881H85.8561V36.9128L83.0822 36.9209Z" fill="#3C3C3B"/>
<path d="M91.6256 36.4302C92.1837 36.6974 92.6458 37.1214 92.9519 37.6468C93.2725 38.2113 93.4341 38.8477 93.4205 39.492C93.4344 40.133 93.2712 40.7659 92.9477 41.3251C92.6381 41.8418 92.1763 42.257 91.6214 42.5174C90.9964 42.8015 90.3116 42.9403 89.6216 42.9229H87.2912V36.0043H89.6216C90.3151 35.9888 91.0024 36.1348 91.6256 36.4302ZM91.5503 41.3454C91.7829 41.0949 91.9616 40.802 92.0758 40.4837C92.19 40.1655 92.2375 39.8283 92.2155 39.492C92.2581 38.8043 92.019 38.1282 91.5503 37.6103C91.2953 37.3745 90.9925 37.1926 90.6613 37.076C90.33 36.9595 89.9774 36.9108 89.6257 36.933H88.4668V42.0024H89.6257C89.9757 42.0249 90.3268 41.9783 90.6576 41.8653C90.9884 41.7524 91.2921 41.5755 91.5503 41.3454Z" fill="#3C3C3B"/>
<path d="M95.7509 36.0043V42.9311H94.5794V36.0043H95.7509Z" fill="#3C3C3B"/>
<path d="M97.3909 37.6306C97.7068 37.1013 98.1652 36.6653 98.7172 36.3693C99.3138 36.0567 99.9843 35.9004 100.662 35.9161C101.34 35.9317 102.002 36.1187 102.583 36.4586C103.175 36.8217 103.628 37.3631 103.872 37.9996H102.462C102.297 37.6593 102.028 37.3762 101.692 37.1885C101.342 37.0048 100.948 36.9126 100.55 36.9209C100.111 36.9143 99.6775 37.0207 99.2945 37.2291C98.9239 37.4384 98.6232 37.7467 98.4285 38.1172C98.2219 38.5371 98.1146 38.9964 98.1146 39.4616C98.1146 39.9268 98.2219 40.3861 98.4285 40.806C98.6243 41.1768 98.9246 41.4862 99.2945 41.6982C99.6775 41.907 100.11 42.0147 100.55 42.0105C100.948 42.0188 101.342 41.9265 101.692 41.7428C102.03 41.5573 102.299 41.2736 102.462 40.9317H103.872C103.623 41.5659 103.165 42.1031 102.57 42.4606C101.959 42.823 101.254 43.0087 100.537 42.996C99.895 43.003 99.262 42.8479 98.7004 42.5458C98.1505 42.2485 97.6938 41.8128 97.3784 41.2845C97.0566 40.7269 96.8877 40.0986 96.8877 39.4596C96.8877 38.8206 97.0566 38.1923 97.3784 37.6346L97.3909 37.6306Z" fill="#3C3C3B"/>
<path d="M113.612 36.0043V42.9311H112.44V39.9016H109.093V42.9311H107.922V36.0043H109.093V38.9729H112.44V36.0043H113.612Z" fill="#3C3C3B"/>
<path d="M116.578 42.5458C116.025 42.2495 115.566 41.8119 115.252 41.2805C114.933 40.7217 114.766 40.0938 114.766 39.4555C114.766 38.8172 114.933 38.1894 115.252 37.6306C115.569 37.1022 116.027 36.6665 116.578 36.3693C117.143 36.0712 117.776 35.915 118.419 35.915C119.062 35.915 119.695 36.0712 120.26 36.3693C120.809 36.6655 121.265 37.1016 121.578 37.6306C121.896 38.1894 122.063 38.8172 122.063 39.4555C122.063 40.0938 121.896 40.7217 121.578 41.2805C121.267 41.8123 120.811 42.2504 120.26 42.5458C119.695 42.844 119.062 43.0002 118.419 43.0002C117.776 43.0002 117.143 42.844 116.578 42.5458ZM119.678 41.6982C120.05 41.4869 120.351 41.1756 120.544 40.8019C120.76 40.3832 120.868 39.9197 120.858 39.4515C120.869 38.9859 120.761 38.5249 120.544 38.1091C120.349 37.7386 120.049 37.4303 119.678 37.221C119.292 37.0221 118.861 36.9182 118.423 36.9182C117.985 36.9182 117.554 37.0221 117.168 37.221C116.797 37.4303 116.496 37.7386 116.302 38.1091C116.085 38.5249 115.977 38.9859 115.988 39.4515C115.978 39.9197 116.086 40.3832 116.302 40.8019C116.495 41.1756 116.796 41.4869 117.168 41.6982C117.553 41.9019 117.984 42.0087 118.423 42.0087C118.862 42.0087 119.293 41.9019 119.678 41.6982Z" fill="#3C3C3B"/>
<path d="M124.272 42.7567C123.91 42.6121 123.597 42.3718 123.368 42.0632C123.145 41.7577 123.03 41.391 123.038 41.0169H124.293C124.31 41.2996 124.441 41.5645 124.657 41.755C124.914 41.967 125.245 42.0746 125.581 42.0551C125.922 42.0762 126.259 41.9752 126.527 41.7712C126.637 41.6813 126.724 41.5686 126.783 41.4416C126.841 41.3145 126.87 41.1763 126.866 41.0372C126.874 40.8289 126.799 40.6256 126.657 40.4694C126.51 40.321 126.332 40.2061 126.134 40.1328C125.849 40.0294 125.559 39.9427 125.264 39.8732C124.876 39.7812 124.497 39.6592 124.13 39.5083C123.834 39.3841 123.577 39.1869 123.385 38.9364C123.163 38.6359 123.054 38.2711 123.075 37.9023C123.065 37.5309 123.173 37.1655 123.385 36.856C123.598 36.551 123.897 36.3117 124.247 36.1666C124.653 36.0007 125.091 35.9192 125.531 35.9273C126.141 35.904 126.741 36.0813 127.234 36.4302C127.452 36.5961 127.63 36.8055 127.756 37.0442C127.882 37.2828 127.954 37.5451 127.966 37.8131H126.673C126.662 37.6856 126.623 37.5619 126.559 37.4501C126.495 37.3382 126.407 37.2408 126.301 37.1642C126.046 36.9765 125.73 36.8818 125.41 36.8965C125.109 36.8791 124.812 36.9669 124.573 37.1439C124.466 37.2312 124.381 37.3415 124.326 37.4662C124.271 37.5909 124.247 37.7263 124.255 37.8617C124.248 38.055 124.321 38.2429 124.456 38.3849C124.6 38.5261 124.772 38.6366 124.962 38.7093C125.237 38.8094 125.516 38.896 125.799 38.9689C126.193 39.0684 126.578 39.1944 126.954 39.346C127.255 39.4744 127.517 39.6755 127.715 39.93C127.939 40.236 128.049 40.606 128.029 40.9804C128.03 41.3317 127.928 41.6761 127.736 41.974C127.533 42.2942 127.244 42.5549 126.899 42.7283C126.489 42.9262 126.035 43.0237 125.577 43.0122C125.129 43.0168 124.684 42.9297 124.272 42.7567Z" fill="#3C3C3B"/>
<path d="M134.158 39.0662C133.965 39.3956 133.674 39.6602 133.322 39.8246C132.872 40.0385 132.374 40.1403 131.874 40.1206H130.602V42.9311H129.431V36.0043H131.899C132.379 35.9911 132.856 36.0855 133.292 36.2801C133.64 36.4422 133.932 36.7004 134.129 37.0222C134.318 37.34 134.415 37.7016 134.409 38.0686C134.413 38.4162 134.326 38.7591 134.158 39.0662ZM132.903 38.8999C133.017 38.7926 133.105 38.6628 133.162 38.5193C133.219 38.3758 133.244 38.222 133.234 38.0686C133.234 37.3102 132.79 36.933 131.907 36.933H130.602V39.1919H131.899C132.253 39.216 132.603 39.112 132.882 38.8999H132.903Z" fill="#3C3C3B"/>
<path d="M136.706 36.0043V42.9311H135.535V36.0043H136.706Z" fill="#3C3C3B"/>
<path d="M142.861 36.0043V36.933H140.961V42.9311H139.806V36.933H137.894V36.0043H142.861Z" fill="#3C3C3B"/>
<path d="M148.35 41.5157H145.358L144.827 42.9311H143.605L146.166 35.9962H147.521L150.082 42.9311H148.827L148.35 41.5157ZM148.019 40.587L146.86 37.371L145.689 40.587H148.019Z" fill="#3C3C3B"/>
<path d="M152.379 42.0145H154.793V42.9311H151.207V36.0043H152.379V42.0145Z" fill="#3C3C3B"/>
</g>
<defs>
<clipPath id="clip0_0_36">
<rect width="186" height="43" fill="white"/>
</clipPath>
</defs>
</svg>
