<svg width="69" height="110" viewBox="0 0 69 110" fill="none" xmlns="http://www.w3.org/2000/svg">
<g clip-path="url(#clip0_23_189)">
<path d="M21.9018 90.5728L20.5981 90.2885C19.5629 90.0549 18.5931 89.5927 17.7599 88.9356C16.9268 88.2786 16.2514 87.4435 15.7831 86.4916C15.3149 85.5397 15.0657 84.4951 15.054 83.4344C15.0422 82.3737 15.2682 81.3238 15.7153 80.3618C15.883 80.1311 15.9732 79.8533 15.9732 79.5682C15.9732 79.283 15.883 79.0052 15.7153 78.7745C14.3564 76.8029 13.5384 74.5096 13.3429 72.1235C13.1475 69.7374 13.5813 67.3418 14.6012 65.1755C14.7521 64.8917 14.8105 64.5677 14.768 64.2491C14.7255 63.9304 14.5843 63.633 14.3642 63.3987C12.5296 60.9602 11.5376 57.9918 11.5376 54.9407C11.5376 51.8897 12.5296 48.9213 14.3642 46.4828C14.5663 46.3031 14.7035 46.062 14.7549 45.7966C14.8063 45.5311 14.769 45.2561 14.6486 45.014C13.446 42.491 13.029 39.6654 13.4516 36.9028C13.8742 34.1403 15.117 31.5682 17.0189 29.5197C19.4361 26.7248 21.0715 23.3412 21.7596 19.7114C21.9859 18.4762 22.1047 17.2237 22.115 15.9681C22.115 11.443 22.115 6.8942 22.115 2.34542C22.115 0.592238 22.7076 -0.0237427 24.4853 -0.0237427H44.6568C46.4108 -0.0237427 47.0271 0.568547 47.0271 2.34542C47.0271 6.08868 47.0271 9.80836 47.0271 13.5516C47.0326 13.7613 47.0869 13.9667 47.1857 14.1517C47.2844 14.3368 47.4248 14.4963 47.596 14.6176C48.7142 15.0195 49.7139 15.6952 50.5036 16.5828C51.2933 17.4703 51.8478 18.5415 52.1166 19.6985C52.3853 20.8555 52.3597 22.0613 52.042 23.2058C51.7244 24.3504 51.1248 25.397 50.2982 26.2503C50.2049 26.3915 50.1019 26.526 49.99 26.653C50.7011 27.577 51.3886 28.572 52.1708 29.496C54.0708 31.5747 55.3104 34.1705 55.7324 36.9543C56.1544 39.7381 55.7398 42.5844 54.5411 45.1324C54.4736 45.3369 54.4534 45.5541 54.4821 45.7675C54.5108 45.9809 54.5877 46.185 54.7069 46.3644C56.6156 48.848 57.6503 51.8921 57.6503 55.0238C57.6503 58.1554 56.6156 61.1994 54.7069 63.6829C54.6076 63.8942 54.5562 64.1247 54.5562 64.3581C54.5562 64.5915 54.6076 64.8221 54.7069 65.0334C55.8765 67.514 56.2891 70.2841 55.8928 72.9976C55.4965 75.7111 54.309 78.2478 52.4788 80.2908C48.8459 84.3992 46.9138 89.7357 47.0746 95.2164C47.0746 99.3861 47.0746 103.58 47.0746 107.749C47.0746 109.408 46.482 110.118 44.8227 110.118H24.5328C22.8499 110.118 22.1625 109.526 22.1625 107.749C22.1625 103.177 22.1625 98.5806 22.1625 94.0081C22.1151 92.8473 21.9729 91.71 21.9018 90.5728ZM25.6705 3.55371C25.6705 7.69973 25.6705 11.7274 25.6705 15.7549C25.6783 17.191 25.5674 18.6253 25.3388 20.0431C24.4751 24.6038 22.3763 28.8404 19.2708 32.2916C17.5157 34.3838 16.6432 37.0761 16.8378 39.7995C17.0324 42.5229 18.2789 45.0639 20.3137 46.8856C22.3253 48.7325 24.974 49.7295 27.7048 49.6677C30.4355 49.6059 33.0364 48.4901 34.9623 46.554C36.9484 44.5716 38.087 41.896 38.1384 39.0911H41.6466C41.6249 42.7361 40.2282 46.2388 37.7355 48.8994L38.5651 49.2074C40.73 49.857 43.0458 49.8007 45.1766 49.0468C47.3074 48.2928 49.1427 46.8803 50.4166 45.014C51.6893 43.1103 52.3225 40.8511 52.2245 38.5637C52.1265 36.2763 51.3023 34.0795 49.8715 32.2916C48.5678 30.6569 47.5013 28.9037 46.245 27.1506C45.4628 25.9186 45.6997 25.1605 46.8849 24.355C47.5496 23.9769 48.0747 23.3947 48.3821 22.6948C48.6896 21.9949 48.7631 21.2145 48.5916 20.4695C48.3985 19.7139 47.9666 19.0408 47.3603 18.5499C46.7539 18.0591 46.0053 17.7767 45.2256 17.7449C44.9638 17.7541 44.7032 17.7061 44.4618 17.6042C44.2204 17.5024 44.0041 17.3491 43.8281 17.1551C43.6521 16.9611 43.5205 16.7311 43.4426 16.4811C43.3646 16.2311 43.3422 15.9671 43.3769 15.7075C43.3769 13.9069 43.3769 12.0827 43.3769 10.2822V3.62485H42.8553L25.6705 3.55371ZM37.7118 61.1242C40.2157 63.7586 41.6153 67.2514 41.6229 70.8851H38.1147C38.1147 70.5771 38.1147 70.364 38.1147 70.1271C37.9808 68.4843 37.4676 66.8947 36.6154 65.4835C35.7633 64.0724 34.5953 62.878 33.2033 61.9941C31.8114 61.1102 30.2334 60.561 28.5932 60.3895C26.953 60.218 25.2954 60.4289 23.7506 61.0058C22.1535 61.6035 20.7239 62.5769 19.5828 63.8436C18.4417 65.1103 17.6227 66.633 17.1949 68.283C16.767 69.933 16.743 71.6618 17.125 73.323C17.5069 74.9842 18.2836 76.5291 19.3892 77.8269C20.5507 79.201 20.5507 79.7221 19.3892 81.0962C18.9241 81.6086 18.6271 82.2511 18.5381 82.9373C18.4492 83.6234 18.5724 84.3204 18.8914 84.9344C19.2009 85.595 19.7114 86.1409 20.35 86.494C20.9886 86.8472 21.7225 86.9895 22.4469 86.9007C24.2484 86.9007 24.6988 87.0665 25.0069 88.8671C25.3328 90.5636 25.5309 92.282 25.5995 94.0081C25.5995 97.7514 25.5995 101.471 25.5995 105.214V106.352H43.3531C43.3531 102.277 43.3531 98.2963 43.3531 94.2924C43.294 88.5866 45.2972 83.0512 48.9945 78.7035C49.4212 78.1586 49.8952 77.6136 50.2982 77.045C51.6132 75.1729 52.2909 72.9276 52.2311 70.6409C52.1714 68.3542 51.3773 66.1474 49.9663 64.3464C48.54 62.5662 46.5758 61.2951 44.367 60.7229C42.1583 60.1507 39.8236 60.3081 37.7118 61.1716V61.1242ZM17.09 61.1242C19.2327 58.8722 22.0549 57.3842 25.1244 56.8878C28.1938 56.3915 31.3414 56.9142 34.0853 58.3761C34.2614 58.451 34.4508 58.4896 34.6423 58.4896C34.8337 58.4896 35.0231 58.451 35.1992 58.3761C37.8804 56.9741 40.9422 56.4729 43.9308 56.9465C46.9194 57.4202 49.6757 58.8436 51.7915 61.0058L52.0996 61.2428C54.8966 57.7838 54.8492 51.5529 52.0996 48.9231L51.4596 49.5154C49.4126 51.4039 46.848 52.6382 44.0946 53.0603C41.3411 53.4824 38.5244 53.073 36.0052 51.8846C35.6093 51.6809 35.1704 51.5747 34.7251 51.5747C34.2799 51.5747 33.8411 51.6809 33.4452 51.8846C31.0888 52.9893 28.4681 53.4064 25.8849 53.0878C23.3018 52.7693 20.8613 51.728 18.8441 50.084C18.2989 49.6812 17.8011 49.2074 17.2796 48.7573C15.8949 50.5215 15.1267 52.6905 15.0925 54.9325C15.0582 57.1745 15.7598 59.366 17.09 61.1716V61.1242Z" fill="white"/>
<path d="M8.69906 48.0702L7.11099 51.2449L3.05176e-05 47.7149L1.5881 44.5402L8.69906 48.0702Z" fill="white"/>
<path d="M60.2535 48.0939L67.3645 44.5402L68.9525 47.6912L61.8416 51.2449L60.2535 48.0939Z" fill="white"/>
<path d="M3.05176e-05 62.2615L7.11099 58.7313L8.67534 61.8823L1.56438 65.4361L3.05176e-05 62.2615Z" fill="white"/>
<path d="M61.9128 58.8025L69.0237 62.3325L67.4592 65.5072L60.3483 61.9772L61.9128 58.8025Z" fill="white"/>
<path d="M3.36584 34.8266L5.57022 32.6233L10.785 37.8355L8.41464 39.9203L3.36584 34.8266Z" fill="white"/>
<path d="M58.381 37.8117L63.572 32.7417L65.6815 34.945L60.4669 40.1572L58.381 37.8117Z" fill="white"/>
<path d="M5.4992 77.3056L3.29468 75.1023L8.43837 69.9613L10.548 72.3305L5.4992 77.3056Z" fill="white"/>
<path d="M58.381 71.9987L60.4905 69.8901L65.7527 75.1497L63.572 77.1872L58.381 71.9987Z" fill="white"/>
<path d="M27.3772 47.857C26.2277 47.857 25.0896 47.6299 24.0282 47.1888C22.9668 46.7477 22.003 46.1013 21.1924 45.2867C20.3818 44.4721 19.7403 43.5053 19.3047 42.4421C18.8692 41.3788 18.6482 40.24 18.6544 39.0911H22.044C22.0971 40.4856 22.6768 41.8084 23.6663 42.793C24.6558 43.7776 25.9817 44.351 27.3772 44.398V47.857Z" fill="white"/>
<path d="M21.6646 70.9089H18.6781C18.6656 69.7622 18.8807 68.6245 19.311 67.5615C19.7414 66.4985 20.3784 65.5314 21.1853 64.7161C21.9921 63.9009 22.9527 63.2537 24.0115 62.812C25.0702 62.3703 26.2061 62.1429 27.3534 62.1429V65.223C26.0631 65.7407 24.8506 66.4343 23.7505 67.2841C22.8967 68.3941 22.1951 69.6131 21.6646 70.9089Z" fill="white"/>
</g>
<defs>
<clipPath id="clip0_23_189">
<rect width="69" height="110" fill="white"/>
</clipPath>
</defs>
</svg>
