<svg width="100" height="100" viewBox="0 0 100 100" fill="none" xmlns="http://www.w3.org/2000/svg">
<g clip-path="url(#clip0_23_372)">
<path d="M36.3021 78.6816C38.9021 82.4768 39.8076 86.5095 38.3708 90.9164C36.435 96.8326 30.9051 100.398 24.4899 99.8672C18.7185 99.3883 13.7843 94.6755 12.9673 88.7431C12.8144 87.6484 12.5286 87.1333 11.3253 86.9804C5.71092 86.1754 1.64604 82.4003 0.346084 76.955C-0.241489 74.4231 -0.0635943 71.7738 0.857183 69.3432C1.77796 66.9127 3.40011 64.8105 5.51774 63.3035C9.90056 60.1803 15.5109 60.0596 20.264 62.9895C20.7981 63.3376 21.3005 63.7323 21.7652 64.1688C22.1113 63.5127 22.3206 62.7199 22.8196 62.2128C28.7573 56.2161 34.7325 50.2529 40.7453 44.3233C41.3651 43.7116 42.4196 43.5425 43.2728 43.1682C43.5746 43.9731 44.0777 44.8063 44.1381 45.6514C44.2421 47.4581 44.2515 49.269 44.1663 51.0766C44.13 52.1874 44.5245 52.6502 45.6715 52.606C47.2089 52.5416 48.7503 52.606 50.2918 52.606C51.64 52.606 52.2598 53.2781 52.2598 54.5821C52.2598 56.9244 52.3765 59.2788 52.1994 61.6091C52.1391 62.414 51.5112 63.3316 50.8995 63.9554C46.5368 68.3825 42.1097 72.8096 37.7067 77.2005C37.252 77.6714 36.7931 78.1664 36.3021 78.6816ZM41.1317 48.3238C40.3268 49.0643 39.8438 49.4869 39.389 49.9336C33.9759 55.3347 28.5427 60.7156 23.1818 66.165C21.9423 67.4206 21.0166 67.5293 19.612 66.3622C17.9492 64.92 15.8547 64.0708 13.657 63.9477C11.4594 63.8246 9.28313 64.4346 7.46969 65.682C5.67819 66.8925 4.3231 68.6466 3.60427 70.6857C2.88544 72.7248 2.8409 74.941 3.47725 77.0073C4.1128 79.1127 5.42595 80.9493 7.21267 82.2317C8.99938 83.5141 11.1596 84.1704 13.3577 84.0987C15.1648 84.0746 15.8771 84.5857 15.8449 86.5135C15.7604 91.343 18.6622 95.2228 23.0329 96.5147C25.0755 97.1162 27.2559 97.0572 29.263 96.346C31.27 95.6348 33.0012 94.3078 34.2093 92.5545C36.7891 88.7955 36.5798 84.0303 33.4889 80.2592C32.3781 78.9029 32.5472 77.9974 33.7224 76.8463C38.1253 72.5239 42.2827 67.9318 46.895 63.8508C49.676 61.3877 49.2293 58.6912 49.0361 55.6365C47.0036 55.6365 45.1322 55.6043 43.2607 55.6365C41.7193 55.6728 41.0633 54.9765 41.1116 53.4471C41.1599 51.9178 41.1317 50.3603 41.1317 48.3238Z" fill="white"/>
<path d="M56.0309 48.7664C53.8737 48.7664 51.9419 48.7423 49.9939 48.7664C48.5491 48.7906 47.9293 48.1145 47.9454 46.6857C47.9736 43.8685 47.8488 41.0512 48.0138 38.234C48.0661 37.3606 48.6779 36.3625 49.3218 35.7065C54.0628 30.877 58.8803 26.1239 63.7139 21.3064C61.4682 17.97 60.3936 14.5047 61.1703 10.5727C62.422 4.23389 67.8391 -0.128806 74.4516 -0.0161164C77.5316 0.0306861 80.4929 1.1799 82.7982 3.22304C85.1034 5.26619 86.6001 8.06795 87.0165 11.1201C87.1695 12.2067 87.4391 12.7299 88.6465 12.903C94.281 13.7079 98.366 17.5112 99.6539 22.9283C100.237 25.4616 100.055 28.111 99.1311 30.5407C98.2068 32.9704 96.5818 35.0709 94.4621 36.5758C90.0873 39.703 84.4689 39.7955 79.7038 36.8737C79.2001 36.5446 78.7224 36.1772 78.275 35.7749C77.9088 36.4229 77.6592 37.1876 77.1562 37.6947C71.3017 43.5975 65.415 49.4721 59.4961 55.3185C58.8723 55.9303 57.8339 56.1235 56.9887 56.5058C56.6708 55.6324 56.1597 54.7792 56.0751 53.8818C55.9222 52.3041 56.0309 50.6902 56.0309 48.7664ZM59.0936 50.8633L59.6289 51.0202C65.2634 45.3857 70.8979 39.7513 76.476 34.0645C77.9007 32.5995 78.919 32.2655 80.6495 33.7345C82.3165 35.1148 84.3933 35.9048 86.5562 35.9812C88.7191 36.0577 90.8465 35.4163 92.6067 34.157C94.3543 32.9445 95.6748 31.2115 96.3801 29.2048C97.0854 27.198 97.1395 25.0199 96.5348 22.9806C95.906 20.9139 94.6356 19.1009 92.9078 17.8042C91.1799 16.5076 89.0841 15.7946 86.9239 15.7685C84.2194 15.7242 84.2114 15.7162 84.1751 13.1082C84.1737 10.9483 83.481 8.84544 82.1985 7.10744C80.916 5.36943 79.111 4.08748 77.0475 3.44911C74.9808 2.8193 72.7668 2.86703 70.7292 3.58534C68.6915 4.30366 66.937 5.6549 65.7222 7.44154C64.4883 9.21929 63.8737 11.3537 63.9734 13.5155C64.073 15.6772 64.8813 17.746 66.2736 19.4027C67.5655 20.9361 67.481 21.9101 66.0925 23.2744C61.436 27.8062 56.868 32.4345 52.292 37.0507C51.7929 37.5538 51.1289 38.1897 51.0846 38.7974C50.9397 41.0391 51.0283 43.297 51.0283 45.756C53.2458 45.756 55.1777 45.756 57.1095 45.756C58.4376 45.756 59.0856 46.412 59.0896 47.724C59.0977 48.7705 59.0936 49.8169 59.0936 50.8633Z" fill="white"/>
<path d="M72.2904 70.9502C72.0932 71.2158 71.8879 71.8316 71.4855 71.9685C70.9945 72.1375 70.1614 72.1415 69.8314 71.8356C67.7828 69.928 65.7866 67.9559 63.895 65.8953C63.5771 65.5532 63.5972 64.5068 63.895 64.1083C64.1929 63.7099 65.3318 63.4403 65.5854 63.6737C67.8271 65.7464 69.9561 67.9398 72.1053 70.1131C72.222 70.2298 72.1978 70.4914 72.2904 70.9502Z" fill="white"/>
<path d="M29.2027 27.4843C29.7043 27.749 30.18 28.0603 30.6234 28.4139C32.3459 30.0842 34.1168 31.7222 35.6743 33.5373C36.1291 34.0645 35.9399 35.1471 36.0446 35.9521C35.2195 35.8555 34.1369 36.0607 33.6298 35.614C31.7807 33.9784 30.0334 32.2311 28.3978 30.382C27.9953 29.9433 27.9229 29.0579 27.9953 28.418C28.0315 28.1121 28.7278 27.8505 29.2027 27.4843Z" fill="white"/>
<path d="M43.136 26.792C43.136 25.5242 42.967 24.2243 43.2085 23.0048C43.3332 22.3729 44.1824 21.8819 44.7096 21.3306C45.1805 21.8658 46.0337 22.381 46.0659 22.9404C46.2209 25.538 46.2209 28.1426 46.0659 30.7402C46.0297 31.3278 45.088 31.863 44.5607 32.4224C44.0899 31.8147 43.3252 31.2553 43.2044 30.5832C42.975 29.3557 43.136 28.0598 43.136 26.792Z" fill="white"/>
<path d="M27.0133 46.078C25.6812 46.078 24.3168 46.2471 23.0249 46.0096C22.4011 45.8929 21.9222 45.0196 21.3748 44.4883C21.9222 44.0215 22.4454 43.1884 23.0169 43.1562C25.6148 43.0113 28.2187 43.0113 30.8166 43.1562C31.3881 43.1884 31.9194 44.0174 32.4707 44.4803C31.9194 45.0115 31.4364 45.8768 30.8045 46.0056C29.6052 46.2511 28.2811 46.078 27.0133 46.078Z" fill="white"/>
<path d="M72.9344 56.8077C71.6666 56.8077 70.3707 56.9606 69.1391 56.7433C68.5355 56.6387 68.0525 55.8538 67.5293 55.3749C68.0324 54.8598 68.5113 53.9261 69.0385 53.8979C71.7694 53.757 74.5058 53.757 77.2367 53.8979C77.7237 53.922 78.6171 54.8759 78.5367 55.222C78.3998 55.8216 77.7036 56.6346 77.1441 56.7232C75.7758 56.9405 74.351 56.7916 72.9505 56.7916L72.9344 56.8077Z" fill="white"/>
<path d="M56.8519 73.0712C56.8519 74.3389 57.025 75.6389 56.7875 76.8623C56.6628 77.5023 55.8297 78.0053 55.3185 78.5728C54.8315 78.0456 53.9622 77.5385 53.9341 76.9911C53.7831 74.3263 53.7831 71.655 53.9341 68.9902C53.9663 68.4509 54.8839 67.9679 55.395 67.4568C55.8779 67.9961 56.6748 68.479 56.7754 69.0666C56.9968 70.3787 56.8519 71.7551 56.8519 73.0712Z" fill="white"/>
</g>
<defs>
<clipPath id="clip0_23_372">
<rect width="100" height="99.9195" fill="white"/>
</clipPath>
</defs>
</svg>
