<svg width="94" height="94" viewBox="0 0 94 94" fill="none" xmlns="http://www.w3.org/2000/svg">
<g clip-path="url(#clip0_135_75)">
<path d="M5.43289 82.1034C4.20438 79.0249 3.06998 76.0635 1.83892 73.1428C1.37346 72.0361 1.54133 71.2677 2.42392 70.4562C14.8311 59.0378 27.2256 47.6051 39.6073 36.158C39.7319 36.0435 39.8617 35.9239 39.9812 35.812C40.7239 35.1734 41.5277 35.0207 42.2271 35.7865C42.9266 36.5523 42.7053 37.3385 41.9728 38.0102C39.6684 40.1354 37.3639 42.2606 35.0595 44.3859C25.2857 53.4075 15.5102 62.4292 5.73302 71.4509C5.51382 71.6087 5.28152 71.7475 5.03865 71.8656L12.1248 78.4805C12.3792 78.0378 12.542 77.7172 12.7378 77.3967C13.1083 76.8147 13.5913 76.3127 14.1584 75.9199C14.7254 75.5271 15.3652 75.2516 16.0402 75.1094C16.7151 74.9672 17.4116 74.9613 18.0889 75.0919C18.7662 75.2225 19.4105 75.4871 19.9842 75.8702C22.4082 77.5264 22.9678 80.9916 21.1797 83.2687C19.3356 85.6195 15.9503 86.0011 13.74 84.0319C11.7179 82.2306 9.767 80.3428 7.78053 78.4958C7.58365 78.2982 7.32331 78.1765 7.04547 78.1523C7.97893 80.493 8.89459 82.8361 9.84332 85.1666C10.5097 86.7949 10.5173 88.3774 9.65001 89.9319C9.0807 90.9335 8.19277 91.7158 7.12758 92.1542C6.06239 92.5927 4.88118 92.6621 3.77199 92.3514C2.68741 92.0314 1.73531 91.3693 1.0578 90.4637C0.380298 89.5581 0.013696 88.4577 0.0126953 87.3266C0.0342934 86.1956 0.427248 85.1031 1.13097 84.2176C1.83469 83.3321 2.8101 82.7027 3.90679 82.4265C4.3697 82.312 4.82245 82.2306 5.43289 82.1034ZM5.17854 85.2251C4.89315 85.2231 4.6102 85.2778 4.34608 85.3859C4.08196 85.4941 3.84193 85.6536 3.63989 85.8552C3.43785 86.0568 3.27782 86.2965 3.16907 86.5605C3.06033 86.8244 3.00504 87.1073 3.0064 87.3928C3.02567 87.9558 3.26283 88.4893 3.66784 88.8808C4.07285 89.2723 4.61404 89.4912 5.17726 89.4912C5.74048 89.4912 6.28169 89.2723 6.6867 88.8808C7.09172 88.4893 7.32888 87.9558 7.34815 87.3928C7.35016 87.1084 7.29581 86.8265 7.18826 86.5632C7.08071 86.3 6.92208 86.0607 6.72152 85.8591C6.52097 85.6576 6.28247 85.4978 6.01981 85.389C5.75715 85.2801 5.47554 85.2244 5.19125 85.2251H5.17854ZM19.2797 80.1368C19.2649 79.5593 19.0294 79.0095 18.6215 78.6005C18.2136 78.1916 17.6645 77.9547 17.0872 77.9386C16.5176 77.958 15.9779 78.1979 15.5818 78.6078C15.1858 79.0177 14.9644 79.5654 14.9644 80.1355C14.9644 80.7055 15.1858 81.2533 15.5818 81.6632C15.9779 82.0731 16.5176 82.313 17.0872 82.3324C17.6691 82.3271 18.2258 82.0941 18.638 81.6832C19.0502 81.2723 19.2851 80.7163 19.2924 80.1342L19.2797 80.1368Z" fill="white"/>
<path d="M47.1131 41.3939C48.9877 42.063 50.7122 42.7245 52.4723 43.2715C52.8564 43.3911 53.4185 43.2003 53.8153 42.9916C55.2805 42.1929 56.9076 41.7366 58.5743 41.6569C60.2411 41.5773 61.9043 41.8764 63.439 42.5318C64.9736 43.1872 66.3399 44.1819 67.4352 45.4411C68.5305 46.7004 69.3263 48.1914 69.763 49.8024C70.3202 51.8155 70.2716 53.9483 69.6231 55.9339C69.3153 56.9287 68.6947 57.5266 67.6493 57.206C66.604 56.8854 66.492 56.0611 66.782 55.0485C67.7867 51.535 66.637 48.1284 63.8443 46.1439C60.9142 44.0551 57.2999 44.0704 54.2578 46.2787C53.276 46.9886 52.5257 46.9886 51.5287 46.2787C48.4586 44.1213 45.2208 44.2129 42.0999 46.0879C39.2537 47.8002 38.5746 50.6242 38.89 53.7205C39.2232 56.977 41.0342 59.1498 44.1017 60.2972C47.0674 61.409 48.5146 63.4494 48.5197 66.561C48.5299 74.9975 48.5299 83.4332 48.5197 91.868C48.5197 92.2038 48.5986 92.6465 48.4231 92.8551C48.0466 93.3029 47.5099 93.9517 47.075 93.9262C46.5663 93.8932 45.994 93.308 45.6252 92.8271C45.4116 92.5524 45.526 92.0105 45.526 91.5881C45.526 83.3653 45.526 75.1391 45.526 66.9095C45.526 64.5816 45.0173 63.826 42.8833 62.9889C36.8781 60.6356 34.1922 54.0232 36.7789 47.9782C37.0333 47.3524 37.4199 46.8359 36.9163 46.0192C36.3872 45.1593 37.0943 44.1238 38.188 44.0475C41.9295 43.7931 45.2691 40.5696 45.5235 36.6693C45.5972 35.5321 46.5281 35.4227 47.398 35.1276C48.7766 34.6569 50.2366 34.2015 51.3939 33.367C53.4719 31.8659 54.3418 29.6245 54.3647 27.0625C54.3647 26.8946 54.3647 26.7241 54.3647 26.5537C54.3647 25.6047 54.7843 24.9763 55.7687 24.9534C56.753 24.9305 57.1701 25.5589 57.2719 26.4799C57.7322 30.7414 55.115 35.41 50.9436 37.1273C49.1632 37.8626 47.777 38.6258 47.4667 40.6586C47.3928 40.9225 47.2731 41.1714 47.1131 41.3939Z" fill="white"/>
<path d="M78.7518 71.8224L74.1404 75.3995L81.3563 84.6934C83.0706 86.9017 84.7926 89.1025 86.4942 91.3083C87.2293 92.2674 87.1733 93.2749 86.3619 93.743C85.5506 94.2112 84.818 93.9746 84.2483 93.2342C80.0922 87.8787 75.9234 82.5334 71.8055 77.1499C71.4265 76.641 71.1391 75.8574 71.2408 75.2773C71.4189 74.2826 70.9865 73.6694 70.4346 73.0156C69.2773 71.6137 69.1298 70.077 69.6461 68.3622C69.6947 68.0971 69.6885 67.8249 69.6276 67.5623C69.5668 67.2997 69.4528 67.0524 69.2925 66.8357C65.4061 61.7474 61.4764 56.7023 57.5594 51.647C57.3762 51.4129 57.1804 51.1865 57.0176 50.9397C56.5089 50.1764 56.4174 49.3852 57.216 48.8051C58.0147 48.225 58.8082 48.4133 59.4263 49.2147C61.239 51.5604 63.055 53.9053 64.8745 56.2494C67.184 59.2286 69.4858 62.2155 71.8284 65.1693C72.0675 65.4721 72.5914 65.7977 72.9119 65.7494C74.9035 65.4466 76.3914 66.1997 77.5157 67.7695C77.7241 68.104 78.0061 68.3865 78.3402 68.5954C78.6743 68.8044 79.0517 68.9344 79.4436 68.9754C80.0693 69.0594 80.7662 69.5885 81.1808 70.1177C85.2937 75.3435 89.3556 80.61 93.4354 85.8637C93.9441 86.5099 94.2468 87.174 93.7203 87.9474C93.0971 88.8557 91.9144 88.731 91.0852 87.6624C88.0432 83.7478 85.0046 79.8314 81.9693 75.9134C80.9392 74.6082 79.8964 73.2802 78.7518 71.8224ZM76.0938 70.1559C75.0764 69.5631 74.3566 69.0136 73.5503 68.7591C73.296 68.6752 72.4338 69.3876 72.4592 69.6852C72.5228 70.5121 72.9094 71.311 73.2222 72.3134L76.0938 70.1559Z" fill="white"/>
<path d="M67.418 21.1981C66.716 20.8928 65.7825 20.6537 65.0678 20.1194C64.4446 19.6563 64.0046 19.6945 63.3687 19.9464C57.0083 22.4906 50.6402 25.0203 44.2645 27.5357C43.8448 27.7011 43.2751 27.9428 42.9521 27.7901C42.4434 27.5484 41.7846 26.9963 41.777 26.5664C41.8066 26.2553 41.9082 25.9554 42.0737 25.6905C42.2393 25.4255 42.4642 25.2028 42.7308 25.0399C44.8877 24.0654 47.1158 23.2589 49.3185 22.3837C53.5635 20.6969 57.8035 18.9999 62.0537 17.3284C62.7863 17.0384 63.3026 16.784 63.4196 15.8019C63.5976 14.2754 64.5871 13.1789 66.019 12.5988C73.3494 9.62379 80.6865 6.6666 88.0305 3.72722C89.2234 3.24891 89.8745 3.54403 90.3527 4.70163C91.0318 6.34263 91.6626 8.00909 92.3315 9.65009C92.7741 10.739 92.3875 11.4819 91.3701 11.894C83.999 14.8741 76.6229 17.8423 69.2416 20.7987C68.738 20.9692 68.1759 21.0251 67.418 21.1981ZM88.0483 6.88201C86.5527 7.49007 85.1538 8.05996 83.7498 8.62477L67.7639 15.0412C67.685 15.0743 67.6113 15.115 67.5324 15.1455C66.5532 15.5068 66.0063 16.1937 66.4209 17.2038C66.8355 18.2138 67.7283 18.2214 68.6643 17.8322C75.2028 15.1862 81.7429 12.5462 88.2848 9.91212C88.5575 9.77938 88.8217 9.62983 89.0758 9.46434L88.0483 6.88201Z" fill="white"/>
<path d="M57.9255 31.6471C58.0146 30.2783 58.0807 28.9248 58.1977 27.5764C58.5665 23.3225 61.1634 21.366 65.3195 22.1904C69.8774 23.091 73.0619 27.5332 72.6956 32.474C72.3472 37.1756 68.5599 40.9486 63.9663 41.1725C60.6369 41.3328 58.5919 39.4908 58.2206 35.9391C58.0731 34.5119 58.0222 33.0719 57.9255 31.6471ZM60.8913 31.6267C61.0184 33.1761 61.0668 34.7434 61.2982 36.2826C61.5068 37.6666 62.191 38.145 63.5619 38.1755C66.9626 38.2544 69.6892 35.3769 69.7528 31.6573C69.8138 28.1107 67.0999 25.0602 63.8061 24.9737C62.3741 24.9381 61.517 25.5283 61.2931 26.9378C61.0642 28.4796 61.0184 30.0519 60.8913 31.6267Z" fill="white"/>
<path d="M52.3604 18.4988C52.2968 19.8828 51.2693 20.6282 50.3409 20.1627C47.2887 18.6361 44.4451 18.9847 41.4997 20.557C39.4344 21.6587 37.2495 21.3203 35.3953 19.8701C28.2837 14.2474 21.1941 8.59679 14.1266 2.91817C13.1092 2.10912 12.9439 1.25682 13.6179 0.541907C14.4751 -0.346014 15.2763 0.0585102 16.0775 0.699645C22.7974 6.06787 29.558 11.3852 36.2245 16.8145C37.9439 18.2138 39.4318 18.4021 41.4107 17.359C44.6028 15.6773 47.9398 15.7765 51.1777 17.3717C51.7347 17.6337 52.101 18.2392 52.3604 18.4988Z" fill="white"/>
<path d="M30.8907 30.4793C30.6884 31.3399 30.4405 32.1892 30.148 33.0235C29.1815 35.4125 29.2222 37.7328 30.4863 39.9895C30.995 40.9105 31.1807 41.7704 30.1735 42.4243C29.3723 42.9484 28.477 42.5158 27.8538 41.3608C26.2717 38.4273 26.1039 35.3947 27.2688 32.2882C28.1692 29.8814 27.9555 28.9808 25.9258 27.3423C19.7146 22.3608 13.4958 17.3878 7.26928 12.4232C7.07089 12.2655 6.87503 12.1027 6.67409 11.9475C5.86018 11.3038 5.5346 10.5049 6.25696 9.65769C6.92081 8.87408 7.73982 9.00892 8.50796 9.62461C10.7123 11.4022 12.9277 13.1755 15.1541 14.9445C19.4882 18.408 23.8232 21.8698 28.159 25.3299C28.9623 25.9369 29.6231 26.7124 30.095 27.602C30.5669 28.4916 30.8385 29.4736 30.8907 30.4793Z" fill="white"/>
<path d="M60.2453 79.2539C60.2453 83.4925 60.2453 87.7312 60.2453 91.9749C60.2453 93.0154 60.0545 93.8728 58.8286 93.9771C57.8112 94.0636 57.2567 93.3309 57.2542 91.9851C57.2542 83.5044 57.2542 75.0238 57.2542 66.5432C57.2542 63.9125 58.2716 61.8619 60.6472 60.5898C61.5171 60.1191 62.4276 60.0377 62.9541 61.035C63.4628 61.9891 63.0355 62.7091 62.0665 63.19C60.7616 63.8362 60.2173 64.948 60.225 66.4058C60.2606 70.6902 60.2453 74.9721 60.2453 79.2539Z" fill="white"/>
<path d="M78.6347 55.9008C77.9963 58.0023 77.4596 59.7832 76.9153 61.5591C76.7296 62.1646 76.661 62.8948 76.282 63.34C75.903 63.7852 75.0509 64.289 74.6007 64.149C74.1505 64.0091 73.4765 63.0271 73.5833 62.5844C74.1779 60.205 74.9047 57.8607 75.7606 55.5624C75.9157 55.1426 76.8619 54.7305 77.3706 54.7992C77.8793 54.8679 78.2837 55.5675 78.6347 55.9008Z" fill="white"/>
<path d="M7.488 29.1258C7.19295 29.4718 6.91062 30.0951 6.4706 30.2427C6.03057 30.3902 5.19885 30.2732 4.90127 29.945C3.31158 28.1412 1.81346 26.2534 0.322972 24.3478C-0.185727 23.6914 -0.114512 22.8213 0.590036 22.4702C1.09874 22.2158 2.17718 22.1802 2.48494 22.516C4.13059 24.3249 5.61852 26.2738 7.14462 28.1895C7.29977 28.3804 7.32521 28.6577 7.488 29.1258Z" fill="white"/>
<path d="M36.924 92.878C36.5094 93.2621 36.0999 93.9516 35.6293 93.9949C35.0952 94.0458 34.1541 93.6387 34.0066 93.2164C33.1858 90.8607 32.4838 88.4653 31.9031 86.0392C31.8064 85.6347 32.3889 84.7366 32.8111 84.617C33.3198 84.4771 34.3754 84.7926 34.5076 85.1589C35.3928 87.6217 36.0948 90.1481 36.924 92.878Z" fill="white"/>
<path d="M62.9337 11.4463C62.9871 12.7947 61.7993 13.5987 60.8201 13.0084C58.7548 11.7669 56.7174 10.4643 54.7793 9.0446C54.3901 8.75965 54.2324 7.71652 54.4232 7.18733C54.7106 6.391 55.5703 6.16966 56.341 6.64287C58.347 7.8997 60.3283 9.1964 62.2851 10.5329C62.6311 10.767 62.8015 11.2529 62.9337 11.4463Z" fill="white"/>
<path d="M14.2969 39.674C13.7603 39.3484 13.3151 39.1805 13.0125 38.8726C11.466 37.308 9.96027 35.7051 8.43417 34.1201C7.72962 33.3848 7.64061 32.5936 8.39603 31.8939C9.09549 31.2604 9.88398 31.3851 10.5427 32.0593C12.1019 33.6698 13.6941 35.2523 15.1719 36.9365C15.5026 37.3156 15.5941 38.1094 15.4619 38.6258C15.3627 39.0278 14.7421 39.2975 14.2969 39.674Z" fill="white"/>
<path d="M18.2853 39.9055C18.8067 40.2083 19.2467 40.3762 19.5723 40.6688C21.134 42.0884 22.6652 43.5437 24.2091 44.9939C24.9518 45.6884 25.2646 46.5204 24.5143 47.3193C23.7639 48.1182 22.9144 47.851 22.1819 47.1666C20.6075 45.6961 18.9923 44.2663 17.5044 42.7118C17.128 42.3174 16.9957 41.488 17.0924 40.9308C17.1559 40.5339 17.8351 40.2617 18.2853 39.9055Z" fill="white"/>
<path d="M71.1746 78.6815C70.7829 80.0528 70.4853 81.1087 70.175 82.162C69.7935 83.4595 69.412 84.7596 69.0025 86.0444C68.6922 86.9908 67.8604 87.3394 67.0949 86.9196C66.6192 86.6652 66.1232 85.7187 66.2402 85.2226C66.7773 82.9178 67.4508 80.6469 68.2572 78.422C68.42 77.9666 69.3738 77.5316 69.9283 77.5697C70.3989 77.6028 70.8185 78.3381 71.1746 78.6815Z" fill="white"/>
<path d="M76.3634 21.6053C76.577 21.8037 77.1264 22.1141 77.3528 22.5644C78.3346 24.5743 79.2223 26.6351 80.1506 28.6704C80.5474 29.5456 80.3618 30.3038 79.5021 30.7058C78.6424 31.1078 77.9124 30.8228 77.5054 29.9425C76.5465 27.8716 75.5774 25.8057 74.6745 23.7144C74.1861 22.5949 74.8856 21.5722 76.3634 21.6053Z" fill="white"/>
<path d="M52.8794 5.05785C52.8539 6.42662 51.7424 7.18732 50.8191 6.63268C48.7233 5.36059 46.6732 4.01981 44.6588 2.62814C43.9313 2.1193 43.9212 1.30008 44.4426 0.592792C44.964 -0.114491 45.6431 -0.170466 46.3527 0.272223C48.3087 1.52905 50.2646 2.78588 52.1799 4.0885C52.5538 4.35564 52.7471 4.86449 52.8794 5.05785Z" fill="white"/>
<path d="M82.0303 37.458C81.9794 38.4273 81.9514 39.4425 81.87 40.455C81.7937 41.4167 81.3435 42.0858 80.2702 42.0019C79.1968 41.9179 78.9043 41.2005 78.9043 40.221C78.9043 38.239 78.9043 36.2546 78.828 34.2752C78.7848 32.8988 79.1994 32.0999 80.1786 32.105C81.3766 32.105 81.7047 32.97 81.8064 33.9801C81.8268 34.1912 81.8548 34.4024 81.8675 34.6136C81.9234 35.5524 81.9743 36.481 82.0303 37.458Z" fill="white"/>
<path d="M76.9713 51.2806C77.4317 49.1689 77.9022 46.8105 78.472 44.4749C78.6856 43.5972 79.5097 43.2029 80.2524 43.5819C80.7611 43.8364 81.3181 44.7014 81.2418 45.1975C80.8908 47.4873 80.3363 49.744 79.8302 52.0083C79.6343 52.8835 79.0392 53.3058 78.1515 53.1735C77.2638 53.0412 76.9077 52.4026 76.9713 51.2806Z" fill="white"/>
<path d="M33.6072 51.6775C33.2384 53.9673 32.9484 56.2851 32.4397 58.5468C32.3278 59.0404 31.4554 59.6536 30.9136 59.6866C30.1023 59.7324 29.5173 59.0455 29.6419 58.1347C29.9802 55.7508 30.3057 53.3592 30.817 51.011C30.9187 50.5505 31.8344 49.9704 32.3736 49.9628C33.3096 49.9348 33.686 50.7184 33.6072 51.6775Z" fill="white"/>
<path d="M33.569 81.19C33.653 82.111 33.3529 82.8157 32.366 82.9709C31.3333 83.1185 30.7941 82.5562 30.6644 81.5538C30.3744 79.292 30.0463 77.0353 29.8072 74.7685C29.7739 74.387 29.8902 74.0076 30.1314 73.7103C30.3727 73.413 30.72 73.2211 31.1 73.1752C31.48 73.1293 31.863 73.2329 32.1681 73.4642C32.4731 73.6956 32.6763 74.0364 32.7348 74.4148C33.0553 76.6435 33.2969 78.9129 33.569 81.19Z" fill="white"/>
<path d="M32.3635 66.4974C32.3635 67.5965 32.3635 68.693 32.3635 69.7895C32.3635 70.7919 31.8548 71.4585 30.8577 71.4382C29.9217 71.4204 29.4588 70.7818 29.4537 69.8252C29.4537 67.6295 29.4155 65.4364 29.4028 63.2408C29.4028 62.2791 29.736 61.5464 30.8297 61.554C31.9769 61.554 32.3228 62.3173 32.305 63.3349C32.2872 64.3526 32.305 65.4441 32.305 66.4999L32.3635 66.4974Z" fill="white"/>
<path d="M64.8897 93.9847C63.6739 93.9567 62.9744 93.1807 63.2466 92.275C63.5815 91.0591 64.0596 89.8874 64.671 88.7844C64.9075 88.3849 65.9046 88.0796 66.3497 88.2552C66.7948 88.4307 67.3238 89.3365 67.2221 89.7817C66.9007 91.0004 66.4371 92.1772 65.841 93.2876C65.6553 93.6565 65.0881 93.8499 64.8897 93.9847Z" fill="white"/>
</g>
<defs>
<clipPath id="clip0_135_75">
<rect width="94" height="94" fill="white"/>
</clipPath>
</defs>
</svg>
