<svg width="102" height="97" viewBox="0 0 102 97" fill="none" xmlns="http://www.w3.org/2000/svg">
<g clip-path="url(#clip0_23_422)">
<path d="M81.3818 80.6377C80.5223 82.1657 79.9214 83.4231 79.1495 84.5651C75.811 89.4674 71.1394 91.7276 65.302 90.6413C63.3124 90.2672 61.2632 88.978 59.6954 87.5932C57.6819 85.8145 56.2375 83.4111 54.3514 81.4653C50.9571 77.9636 50.8577 77.9398 47.4157 81.5051C45.9036 83.0729 44.6939 84.9272 43.2296 86.5507C37.993 92.3642 29.7004 92.4637 24.3763 86.674C22.8324 85.0028 21.7262 82.9296 20.1027 80.5819C19.6133 83.8329 19.0801 86.7656 18.7657 89.734C18.5747 91.5008 18.8692 93.3152 18.6503 95.09C18.5668 95.7783 17.6754 96.3673 17.1542 97.004C16.617 96.4389 15.6421 95.8977 15.6102 95.3048C15.2839 88.966 15.6938 82.7227 18.5031 76.8535C18.8848 76.0333 19.0701 75.1355 19.0443 74.2312C18.9368 70.6022 18.9368 66.9255 16.6568 63.185C15.3556 66.9891 12.1643 66.7384 9.27144 67.5621C3.44993 69.1538 1.31312 76.0855 4.89436 81.0913C7.36542 84.5531 9.16002 88.2538 9.74098 92.4836C9.85637 93.3351 10.0872 94.2623 9.86832 95.0422C9.64946 95.8221 8.93322 96.3712 8.43184 97.0318C7.87078 96.4269 7.0073 95.9017 6.80834 95.1934C6.41042 93.745 6.6253 92.0857 6.08016 90.7129C5.06945 88.1503 3.96722 85.54 2.41933 83.2918C-3.06396 75.2698 1.20568 65.3139 10.7756 63.7939C12.3672 63.5392 13.7639 62.0032 15.3516 61.0085C13.9549 58.8836 12.789 57.1288 11.639 55.362C7.48283 49.1064 4.65622 42.0636 3.33454 34.6704C1.48423 24.0182 8.54325 15.4471 18.8334 15.8808C21.8466 16.0182 24.7193 17.1951 26.9628 19.2114C29.7482 21.6466 32.275 24.3843 35.0047 26.8951C37.5155 29.203 40.1458 31.3796 42.963 33.8348C43.4723 32.0919 43.4604 31.3398 42.0438 30.8663C41.3992 30.6514 40.8819 29.6049 40.6233 28.829C40.3845 28.1207 40.5715 27.2691 40.5715 26.3818C39.2863 25.9282 37.0778 26.6524 37.2808 24.5076C37.3524 23.7357 38.9958 23.107 39.9269 22.4146L40.5715 22.8841C40.5715 21.7819 40.5715 20.6836 40.5715 19.5814C40.5715 17.17 40.8859 16.8398 43.1819 16.6806C43.536 15.3675 43.3927 14.4403 41.7971 14.0066C41.2639 13.8634 40.7904 12.8885 40.6233 12.212C40.4203 11.4162 40.5755 10.5169 40.1298 10.0434C39.135 9.31517 37.4041 8.67852 37.2967 7.83891C37.0261 5.72996 39.1868 6.49794 40.5715 6.00452C40.5715 4.74711 40.5357 3.43795 40.5715 2.13278C40.6392 0.314308 41.4071 -0.298482 43.1102 0.218809C48.1449 1.77901 53.5322 1.79011 58.5732 0.250649C60.3997 -0.290516 61.1478 0.29442 61.2074 2.24023C61.2433 3.48969 61.2074 4.73516 61.2074 6.02043C62.5245 6.54568 64.8126 5.6623 64.5181 7.92644C64.4146 8.72227 62.7275 9.31119 61.7645 9.99561L61.2074 9.55393C61.2074 10.3975 61.3706 11.2849 61.1597 12.0727C60.9488 12.8606 60.5031 13.8673 59.9341 14.0385C58.4459 14.4841 58.3066 15.3516 58.5732 16.6249C63.2209 16.9273 60.2564 20.7195 61.6213 22.9398C62.4171 23.3576 64.737 22.3827 64.5261 24.5991C64.4545 25.395 62.815 26.0316 61.8919 26.7399L61.2114 26.2704C61.2114 26.8911 61.1716 27.5198 61.2114 28.1406C61.3228 29.6208 60.9568 30.6634 59.3213 31.1608C58.8239 31.312 58.6051 32.3545 58.2589 33.0111L58.8558 33.5124C60.6742 32.1277 62.624 30.8783 64.2913 29.3264C67.2478 26.5728 69.9656 23.5646 72.9102 20.7951C76.0219 17.8744 79.5514 15.7813 84.0518 15.8609C92.0619 16.0041 98.2972 21.9928 98.6195 30.0227C98.8861 36.6321 96.8249 42.7282 93.948 48.5099C91.8629 52.7079 89.2645 56.6473 86.8571 60.7657C88.1948 62.6085 90.205 63.8495 92.4518 64.2196C100.545 65.7357 104.477 75.4409 99.865 82.3527C97.195 86.3557 95.09 90.4224 94.9388 95.3367C94.9388 95.9256 93.944 96.4787 93.4108 97.0477C92.8816 96.419 91.9027 95.7943 91.8987 95.1616C91.8669 90.2354 93.4904 85.7947 96.4071 81.8553C98.3808 79.1853 99.1766 76.3998 98.2256 73.2165C97.0995 69.504 93.566 66.818 89.6982 67.021C88.2419 67.0966 87.3784 66.822 86.7338 65.489C86.3796 64.7568 85.6594 64.1997 84.7442 63.1612C84.1195 65.2383 83.4191 66.8777 83.1525 68.5808C82.6114 72.162 82.48 75.612 84.1433 79.1853C86.4433 84.1274 86.4433 89.6067 86.2642 95.0064C86.2244 96.1444 85.7509 97.1512 84.5612 96.9045C83.9563 96.7771 83.2122 95.7107 83.1247 94.9865C82.6352 90.8601 82.3288 86.7099 81.9309 82.5715C81.8045 81.9122 81.6207 81.2651 81.3818 80.6377ZM31.8134 27.9695C29.4259 25.769 27.2294 23.481 24.7742 21.4954C21.0617 18.4871 16.8915 18.2603 12.6497 20.3016C8.40796 22.343 6.58153 25.9122 6.3786 30.3808C6.33051 32.3621 6.5202 34.3419 6.94363 36.278C8.57906 44.4352 12.5861 51.5062 17.381 58.1633C20.5643 62.5404 22.0286 67.3632 22.3072 72.7748C22.4584 75.6677 23.3497 78.6441 24.4838 81.338C27.1339 87.625 36.3695 91.1466 41.9364 83.2878C43.7429 80.7371 46.2697 78.7038 48.4503 76.4158C50.0021 74.7843 49.3774 72.731 49.1068 70.9444C48.9994 70.2202 47.4634 69.3806 46.4567 69.1737C40.9058 68.0237 35.713 66.2371 31.8094 61.856C29.5413 59.3054 28.1685 56.3489 28.065 52.883C27.9775 50.03 28.8608 47.5907 31.1767 45.8518C25.9242 37.2887 25.96 36.2103 31.8134 27.9695ZM69.8422 28.1167C75.4131 34.0854 76.2407 39.9109 70.467 45.6608C73.2524 48.2672 74.0482 50.3045 73.6781 53.7186C73.1887 58.3862 70.6778 61.852 67.0051 64.5499C63.5631 67.0727 59.584 68.2465 55.4655 69.1299C54.4389 69.3527 52.8154 70.1486 52.7478 70.8171C52.5528 72.6196 52.4493 74.9276 53.4003 76.2486C55.4974 79.1614 58.1753 81.712 60.8095 84.1712C62.3017 85.5599 64.1003 87.0521 65.9824 87.4858C70.069 88.4209 73.5428 86.7775 76.0577 83.4071C78.3362 80.3481 79.562 76.633 79.5514 72.8186C79.6031 67.387 81.342 62.6717 84.3503 58.1554C87.3695 53.6469 90.0636 48.9289 92.412 44.0373C94.4533 39.7398 95.7744 35.0763 95.4442 30.1938C95.1497 25.8168 93.2954 22.2594 89.181 20.2897C85.0665 18.32 80.8884 18.4553 77.2156 21.3959C74.6849 23.4094 72.4247 25.7411 69.8422 28.1167ZM34.0059 30.3968C33.1822 31.5905 32.4501 32.5972 31.7816 33.6398C30.1899 36.1069 30.0148 38.566 31.8691 41.0132C33.3454 42.9669 34.6983 45.0162 36.2462 46.9023C40.1737 51.5415 42.4174 57.3723 42.6128 63.4477C42.6367 64.0446 43.2018 64.9518 43.723 65.1428C45.9951 65.9705 48.3428 66.5912 50.6666 67.2717C50.8542 67.3084 51.0482 67.2932 51.2277 67.2279C53.3566 66.5952 55.4655 65.859 57.6262 65.3457C58.82 65.0592 59.194 64.5061 59.2179 63.3124C59.326 57.5013 61.407 51.8998 65.119 47.4276C66.7862 45.3743 68.2705 43.1739 69.894 41.0609C71.8318 38.5381 71.5811 36.0352 69.9417 33.5005C69.2931 32.5097 68.5888 31.5507 67.785 30.3968C63.0498 35.1439 57.7058 38.3551 50.9173 38.3551C44.1289 38.3551 38.7769 35.2036 34.0059 30.3968ZM43.8663 11.3326C48.4431 12.6815 53.312 12.6815 57.8888 11.3326V4.23379H43.8663V11.3326ZM57.9246 28.1008V20.99H43.8663V28.1088C48.4646 29.414 53.3358 29.4112 57.9326 28.1008H57.9246ZM33.2419 48.4423C30.8942 50.1135 31.0096 52.3498 31.4752 54.4826C32.4182 58.7841 35.3151 61.486 39.3539 63.5432C39.2661 57.9245 37.0869 52.5403 33.2419 48.4423ZM62.4569 63.3005C66.9454 61.7884 70.5266 57.077 70.5266 52.6681C70.5266 51.0048 70.3277 49.3734 68.4654 48.5179C64.6454 52.7557 62.624 57.6063 62.4569 63.3005ZM45.9553 32.1953C46.6278 33.3453 47.0217 34.7221 47.547 34.7699C50.0618 35.0007 52.6125 34.8733 55.183 34.8733V32.1953H45.9553ZM46.6039 15.4272V17.8147H55.3183C55.2745 16.788 55.2427 16.0917 55.2109 15.4272H46.6039Z" fill="white"/>
<path d="M33.6319 69.0464C35.3906 69.7268 37.2449 70.2401 38.8804 71.1394C40.679 72.1382 40.9973 73.8174 39.9508 75.5722C38.757 77.5618 37.4956 79.5076 36.1785 81.4136C34.9848 83.1127 33.1345 83.4032 31.5309 82.106C28.4788 79.6389 27.4482 76.3004 27.8621 72.5282C28.069 70.6301 30.4565 69.4284 33.6319 69.0464ZM37.2808 73.8214C36.6162 73.4633 36.274 73.121 35.9239 73.1171C34.3322 73.1171 32.7405 73.1767 31.1489 73.2165C31.3797 74.6809 31.4791 76.181 31.893 77.5936C32.1078 78.3258 32.8679 78.8948 33.4846 79.6827L37.2808 73.8214Z" fill="white"/>
<path d="M73.9925 75.1544C73.903 76.4645 73.5465 77.7426 72.945 78.91C72.3435 80.0773 71.5097 81.1094 70.4948 81.9428C68.748 83.4111 66.8379 83.1843 65.5487 81.3101C64.2595 79.4359 62.9861 77.4424 61.7884 75.4608C60.8095 73.8333 61.2194 72.3491 62.6877 71.2628C63.8231 70.3881 65.1507 69.7968 66.5604 69.5379C67.9701 69.2791 69.4212 69.3602 70.7932 69.7745C73.3837 70.4868 74.1079 71.5453 73.9925 75.1544ZM64.5579 73.8532C65.7914 75.7751 66.9852 77.6334 68.2506 79.615C68.594 79.3359 68.9208 79.0369 69.2294 78.7197C70.5187 77.1837 71.3145 73.9845 70.6261 73.1847C69.8621 72.3093 66.9454 72.5361 64.5579 73.8532Z" fill="white"/>
</g>
<defs>
<clipPath id="clip0_23_422">
<rect width="101.855" height="97" fill="white"/>
</clipPath>
</defs>
</svg>
