<svg width="42" height="131" viewBox="0 0 42 131" fill="none" xmlns="http://www.w3.org/2000/svg">
<g clip-path="url(#clip0_23_358)">
<path d="M20.4004 106.91C17.3868 108.352 14.5487 107.788 12.8384 105.525C12.0122 104.384 11.6007 102.995 11.672 101.589C11.7433 100.182 12.2932 98.8421 13.2305 97.7909C14.5375 96.3718 16.1246 95.8341 18.0403 96.3718C19.0598 96.6594 20.098 96.8722 21.4348 97.1934C21.2183 94.9043 21.0241 92.8803 20.8299 90.845L20.4565 90.8077C20.3071 91.0168 20.1428 91.2147 20.0121 91.4313C18.7312 93.6122 16.7408 94.262 14.3844 93.9109C12.0281 93.5599 10.5568 92.0438 9.85096 89.8442C9.1265 87.5775 9.5074 85.4116 11.3671 83.8693C12.1849 83.1897 13.4546 82.9843 14.5562 82.749C15.852 82.4503 17.1889 82.3383 18.7835 82.103L16.879 77.3567C15.4263 78.0438 14.0073 78.5628 12.7451 79.3433C10.2095 80.908 8.05848 80.8781 5.95232 79.0446C4.89622 78.1136 4.17167 76.8643 3.88806 75.4854C3.60445 74.1064 3.77718 72.6726 4.38017 71.4004C4.94375 70.2637 5.85895 69.339 6.98984 68.7638C8.12073 68.1886 9.40699 67.9935 10.6576 68.2075C11.1505 68.3046 11.6061 68.581 12.0953 68.7154C12.5546 68.7912 13.019 68.8324 13.4845 68.8386C13.1932 67.5802 12.943 66.5495 12.7189 65.5151C12.4949 64.4807 12.2932 63.4388 12.0318 62.1542C10.6165 62.4641 9.27961 62.6434 8.01741 63.0542C4.93658 64.055 2.50927 63.2483 0.922181 60.5671C0.125718 59.2087 -0.176643 57.6168 0.0663212 56.061C0.309285 54.5052 1.08264 53.0813 2.25534 52.0304C3.33129 51.0787 4.71011 50.5399 6.14624 50.5098C7.58237 50.4797 8.98256 50.9603 10.0974 51.8661C10.3738 52.0902 10.6651 52.2956 11.2663 52.7474C11.4044 50.3238 11.5277 48.1915 11.6397 46.2945C10.0339 46.2235 8.40951 46.3991 6.93072 46.0144C5.36977 45.6036 4.27935 44.3265 3.64451 42.7842C2.62504 40.3121 3.46899 37.1827 5.60129 35.4575C8.0062 33.5231 9.89577 33.6538 13.4434 36.1035L15.2919 30.1697C11.9721 30.3863 9.73893 29.0046 8.83149 25.849C8.20412 23.6607 9.20492 21.0616 11.143 19.6687C14.2052 17.4543 16.7259 18.6493 19.0561 21.2558C19.6722 20.016 20.1764 19.0152 20.6693 18.007C17.3383 14.534 16.5914 11.2852 18.5258 8.8317C20.2249 6.6882 22.7904 6.53136 26.1364 8.5367C26.1364 7.46495 26.2857 6.50521 26.1102 5.60524C25.4269 2.11737 27.1222 -0.0335993 30.7072 0.00374396C32.1486 0.00374396 33.6237 -0.0373318 35.0203 0.239009C36.6582 0.561732 38.1451 1.41249 39.2532 2.66094C40.3614 3.9094 41.0297 5.4867 41.1558 7.15126C41.4845 10.5122 40.8944 13.6901 39.8152 16.8605C38.2393 21.521 36.8987 26.2636 35.5095 30.9837C35.0988 32.3916 34.4378 33.1123 33.4183 32.9293C32.298 32.7277 31.8947 31.8352 32.1934 30.278C32.3316 29.5311 32.481 28.8253 32.6528 27.9403C28.6645 27.5332 24.9601 26.4017 21.5768 24.1312C20.5797 25.6548 19.3772 25.4532 18.171 24.6055C17.2132 23.9485 16.3 23.2287 15.4375 22.4508C14.6645 21.745 13.9438 21.7936 13.1969 22.3574C12.1961 23.0819 11.7443 24.4561 12.2484 25.442C12.7003 26.3121 13.3874 27.1113 14.4554 26.6967C17.4428 25.5391 19.31 27.8917 21.5506 28.9373C21.8643 29.083 22.0398 30.2294 21.8046 30.6476C21.5319 31.1294 20.7664 31.4543 20.1577 31.585C19.7245 31.6783 19.198 31.3348 18.6005 31.1555L17.7603 33.6762C20.9195 35.4351 24.2729 35.8757 27.6936 35.9355C29.1873 35.9616 30.681 35.7973 32.1748 35.7114C33.9187 35.6106 34.6282 36.2716 34.4154 38.0118C33.4938 45.1412 33.7144 52.3719 35.0689 59.4319C35.924 63.7039 37.3692 67.8565 38.4298 72.0875C39.3111 75.5567 40.0654 79.0595 40.8123 82.5436C41.1334 84.0635 40.5808 84.9859 39.4493 85.1315C38.4111 85.266 37.7576 84.5639 37.485 83.0739C37.246 81.752 36.9809 80.4375 36.6896 78.8989C32.3354 81.8565 27.6114 82.6519 22.4469 82.1478C22.6971 84.015 21.4012 84.5975 20.0083 84.9485C18.2654 85.423 16.4926 85.7798 14.7019 86.0166C13.5816 86.1435 13.1036 86.6253 12.9206 87.5962C12.7115 88.7165 13.4397 90.1617 14.4591 90.4604C15.4188 90.7442 16.5877 90.8824 16.9947 89.7136C17.525 88.2198 18.6565 87.7194 19.9822 87.3497C21.1025 87.0398 22.2228 86.6439 23.3431 86.3377C25.0833 85.8634 26.5621 86.4759 27.8766 87.57C28.6234 88.1899 28.784 89.0003 28.2089 89.8106C27.6338 90.621 26.8758 90.7704 25.9945 90.3073L24.0377 89.3065C24.187 90.6247 24.258 91.5807 24.4298 92.518C24.4875 92.6534 24.5783 92.7722 24.6937 92.8636C24.8092 92.9549 24.9457 93.0158 25.0908 93.0408C28.9969 93.2612 32.8619 93.1155 36.3572 91.0728C37.2273 90.5612 37.9032 89.721 38.7659 89.2057C39.3036 88.8733 40.1252 88.5522 40.633 88.7389C40.9208 88.899 41.1681 89.123 41.3558 89.3936C41.5436 89.6642 41.6668 89.9742 41.716 90.2998C42.3757 97.7802 41.8515 105.318 40.1625 112.635C39.9069 113.877 39.3919 115.052 38.6513 116.081C37.9106 117.111 36.9609 117.972 35.8643 118.61C32.848 120.361 30.6324 123.218 29.6877 126.575C28.9894 128.924 27.2417 130.235 24.9974 130.309C22.8166 130.369 21.1436 129.189 20.2697 126.866C18.3652 121.814 18.5594 116.642 19.4743 111.44C19.7208 109.935 20.0569 108.493 20.4004 106.91ZM30.5765 51.4068C27.8878 51.9109 25.3484 52.5794 22.7643 52.8146C20.1801 53.0499 17.4877 52.8669 15.1724 52.8669C14.7131 53.8901 14.5413 54.9096 13.9401 55.4809C12.9243 56.422 9.29828 55.8544 8.26014 54.8088C7.81088 54.295 7.17854 53.9774 6.4982 53.9237C5.81787 53.8699 5.14349 54.0844 4.61916 54.5212C3.99707 55.0243 3.57483 55.7327 3.42835 56.5192C3.28186 57.3057 3.42074 58.1187 3.82002 58.812C4.54075 60.1563 5.35856 60.4588 6.98673 59.8501C10.0115 58.7298 13.1558 58.9763 16.2665 59.1032C16.7931 59.1257 17.596 60.0368 17.6893 60.6269C17.7677 61.1198 17.0321 61.7808 16.569 62.2924C16.401 62.4791 15.9827 62.4492 15.6093 62.5314C15.74 63.2446 15.7549 63.928 16.0014 64.5068C16.1769 64.9139 16.64 65.4404 17.0283 65.4852C21.2145 65.9744 25.326 65.6533 29.2471 63.9915C32.1374 62.7666 32.0889 62.733 31.6557 59.7232C31.23 56.9 30.9088 54.0918 30.5615 51.4068H30.5765ZM17.5063 69.003C17.2412 69.7834 17.1815 70.534 16.7856 71.0195C15.8968 72.1398 12.0766 72.5991 10.8107 71.8933C9.63437 71.2361 8.53648 71.4527 7.70746 72.502C6.87844 73.5514 7.02034 75.3028 8.02487 76.3521C8.90244 77.2745 9.79868 77.3604 10.863 76.5724C13.5367 74.5933 16.7483 74.0592 19.9 73.4804C20.8598 73.3012 21.939 73.5887 22.9286 73.8053C23.9182 74.0219 24.385 74.8173 24.131 75.8256C23.8771 76.8339 23.1078 77.1923 22.0884 77.0243C21.573 76.9421 21.0577 76.8787 20.449 76.7928C21.0054 78.6599 21.0017 78.701 22.5365 78.7794C24.1666 78.8877 25.8021 78.8877 27.4322 78.7794C30.1891 78.6016 32.8255 77.5838 34.9867 75.8629C35.3191 75.5903 35.7336 74.9966 35.6365 74.6754C34.8224 71.7402 33.9038 68.8349 32.9851 65.8101C27.9849 68.7677 22.6933 69.2606 17.4727 69.003H17.5063ZM16.823 37.0707C16.6213 37.8176 16.4719 38.3852 16.3039 38.9379C15.8595 40.4316 14.9409 40.9021 13.5554 40.1739C12.4911 39.6138 11.5426 38.8408 10.5269 38.1873C10.1049 37.9184 9.485 37.3919 9.2348 37.5226C8.38337 37.9669 7.42738 38.5084 6.93445 39.2814C6.31082 40.2598 6.47887 41.4436 7.38258 42.3585C7.69377 42.7114 8.1121 42.9526 8.57345 43.045C9.03481 43.1374 9.51375 43.076 9.93686 42.8701C10.4821 42.6461 11.1206 42.3212 11.6434 42.4257C13.6488 42.8253 15.6392 43.3294 17.6184 43.9195C17.8268 43.9662 18.0229 44.0571 18.1932 44.186C18.3636 44.3149 18.5043 44.4789 18.6059 44.6668C18.7075 44.8548 18.7675 45.0623 18.7821 45.2755C18.7966 45.4886 18.7653 45.7024 18.6901 45.9024C18.3914 46.8733 17.6632 47.3028 16.6213 47.075L15.1014 46.7501C15.0342 47.2729 14.9595 47.6837 14.9334 48.0945C14.9072 48.5052 14.9334 48.9011 14.9334 49.2782C18.8619 50.0624 24.6688 49.5695 28.5824 48.3148C30.0761 47.8368 30.7856 47.1945 30.6213 45.5028C30.4271 43.4489 30.5765 41.3615 30.5765 39.2516C25.9198 39.5354 21.3153 39.1208 16.7893 37.0707H16.823ZM23.9182 106.955C23.5111 108.822 23.0929 110.45 22.7979 112.09C22.051 116.53 21.7597 120.977 23.3506 125.305C23.5784 125.933 24.2655 126.672 24.8704 126.799C25.8115 127.023 26.3268 126.179 26.5808 125.305C27.7907 121.134 30.3151 117.99 34.0307 115.757C36.7045 114.144 37.1377 111.492 37.4813 108.602C32.6976 109.845 28.2425 109.532 23.8883 106.955H23.9182ZM24.8555 96.6332C24.8555 97.0403 24.8555 97.4959 24.8555 97.9477C24.9227 99.7253 24.3738 100.424 22.6149 100.349C20.946 100.298 19.2857 100.091 17.6557 99.729C16.5354 99.4713 15.852 99.6319 15.3442 100.622C14.7765 101.742 15.0305 103.269 15.979 103.915C16.9275 104.561 17.8462 104.662 18.7461 103.766C20.1727 102.332 22.9995 102.085 24.5717 103.28C28.3807 106.174 32.5557 106.567 37.0294 105.233C37.8174 104.998 38.1497 104.628 38.1983 103.792C38.2804 102.026 38.5119 100.267 38.5941 98.5042C38.665 97.0104 38.5941 95.4868 38.5941 94.1238C36.2377 94.8333 34.0643 95.6997 31.8088 96.1067C29.5533 96.5138 27.1932 96.4727 24.8256 96.6332H24.8555ZM23.0892 21.0691C26.1282 23.2265 29.7378 24.4362 33.4631 24.5458C34.3594 21.9915 35.2369 19.5903 36.0211 17.1593C36.0646 16.939 36.0533 16.7114 35.9882 16.4965C35.923 16.2816 35.8061 16.086 35.6477 15.9269C33.2577 14.4332 30.8155 12.988 28.433 11.5578C26.76 13.5407 25.7555 13.5444 24.1871 11.7855C24.0003 11.5764 23.8734 11.2441 23.6456 11.1582C23.0107 10.9155 22.234 10.4897 21.7075 10.6765C21.2967 10.8221 20.9606 11.7968 20.9606 12.3793C21.0091 14.0037 22.1444 14.9485 23.4925 15.6132C24.4074 16.0651 25.3895 16.3788 26.3343 16.7746C27.3612 17.2041 28.0035 17.8949 27.5218 19.06C27.0401 20.2251 26.1177 20.4044 25.0945 19.8741C23.836 19.2318 23.317 19.7546 23.0593 21.0691H23.0892ZM29.7886 8.54041L37.6306 12.9133C37.7315 11.61 37.9032 10.4188 37.9032 9.22754C37.9032 4.89945 36.3274 3.35345 32.0142 3.35345H30.3375C29.5383 3.35345 29.3031 3.77542 29.3964 4.53349C29.5234 5.86291 29.628 7.19232 29.7587 8.54041H29.7886Z" fill="white"/>
</g>
<defs>
<clipPath id="clip0_23_358">
<rect width="42" height="130.265" fill="white"/>
</clipPath>
</defs>
</svg>
