<svg width="69" height="110" viewBox="0 0 69 110" fill="none" xmlns="http://www.w3.org/2000/svg">
<g clip-path="url(#clip0_23_426)">
<path d="M21.9018 90.5729L20.5982 90.2886C19.563 90.0549 18.5931 89.5927 17.76 88.9357C16.9268 88.2787 16.2514 87.4436 15.7832 86.4916C15.3149 85.5397 15.0658 84.4951 15.054 83.4345C15.0423 82.3738 15.2683 81.3239 15.7153 80.3618C15.883 80.1311 15.9733 79.8534 15.9733 79.5683C15.9733 79.2831 15.883 79.0052 15.7153 78.7745C14.3565 76.8029 13.5384 74.5097 13.343 72.1236C13.1475 69.7374 13.5813 67.3418 14.6012 65.1756C14.7522 64.8917 14.8105 64.5678 14.768 64.2491C14.7255 63.9305 14.5843 63.6331 14.3642 63.3987C12.5296 60.9602 11.5376 57.9918 11.5376 54.9408C11.5376 51.8898 12.5296 48.9214 14.3642 46.4829C14.5663 46.3032 14.7036 46.0621 14.755 45.7966C14.8064 45.5312 14.7691 45.2561 14.6486 45.014C13.446 42.4911 13.029 39.6654 13.4516 36.9029C13.8742 34.1403 15.117 31.5683 17.019 29.5198C19.4361 26.7249 21.0715 23.3412 21.7596 19.7114C21.9859 18.4763 22.1048 17.2238 22.1151 15.9681C22.1151 11.443 22.1151 6.89426 22.1151 2.34548C22.1151 0.592299 22.7076 -0.0236816 24.4854 -0.0236816H44.6568C46.4109 -0.0236816 47.0271 0.568608 47.0271 2.34548C47.0271 6.08875 47.0271 9.80842 47.0271 13.5517C47.0326 13.7613 47.087 13.9667 47.1857 14.1518C47.2844 14.3368 47.4249 14.4963 47.596 14.6177C48.7142 15.0196 49.7139 15.6953 50.5036 16.5828C51.2933 17.4704 51.8478 18.5416 52.1166 19.6986C52.3853 20.8555 52.3597 22.0614 52.0421 23.2059C51.7244 24.3504 51.1249 25.3971 50.2982 26.2503C50.2049 26.3916 50.102 26.5261 49.99 26.6531C50.7011 27.577 51.3886 28.5721 52.1708 29.4961C54.0708 31.5748 55.3104 34.1706 55.7324 36.9544C56.1544 39.7382 55.7398 42.5845 54.5412 45.1325C54.4736 45.337 54.4534 45.5541 54.4821 45.7676C54.5109 45.981 54.5877 46.1851 54.707 46.3645C56.6156 48.848 57.6503 51.8921 57.6503 55.0238C57.6503 58.1555 56.6156 61.1994 54.707 63.683C54.6076 63.8943 54.5562 64.1247 54.5562 64.3582C54.5562 64.5916 54.6076 64.8222 54.707 65.0334C55.8766 67.5141 56.2891 70.2842 55.8928 72.9977C55.4966 75.7112 54.3091 78.2479 52.4788 80.2908C48.846 84.3993 46.9138 89.7357 47.0746 95.2165C47.0746 99.3862 47.0746 103.58 47.0746 107.749C47.0746 109.408 46.482 110.118 44.8228 110.118H24.5328C22.8499 110.118 22.1625 109.526 22.1625 107.749C22.1625 103.177 22.1625 98.5807 22.1625 94.0082C22.1151 92.8473 21.9729 91.7101 21.9018 90.5729ZM25.6705 3.55377C25.6705 7.6998 25.6705 11.7274 25.6705 15.755C25.6783 17.1911 25.5674 18.6253 25.3388 20.0432C24.4751 24.6039 22.3763 28.8404 19.2708 32.2917C17.5157 34.3839 16.6432 37.0762 16.8378 39.7995C17.0325 42.5229 18.279 45.064 20.3137 46.8856C22.3253 48.7325 24.974 49.7296 27.7048 49.6678C30.4356 49.6059 33.0365 48.4901 34.9623 46.554C36.9484 44.5717 38.087 41.8961 38.1384 39.0911H41.6466C41.6249 42.7361 40.2282 46.2388 37.7355 48.8995L38.5651 49.2075C40.7301 49.8571 43.0458 49.8008 45.1766 49.0468C47.3075 48.2929 49.1428 46.8804 50.4167 45.014C51.6893 43.1104 52.3225 40.8512 52.2245 38.5638C52.1265 36.2764 51.3024 34.0796 49.8716 32.2917C48.5679 30.6569 47.5013 28.9038 46.245 27.1506C45.4628 25.9187 45.6998 25.1606 46.8849 24.355C47.5496 23.977 48.0747 23.3948 48.3821 22.6949C48.6896 21.9949 48.7631 21.2146 48.5916 20.4696C48.3985 19.714 47.9667 19.0408 47.3603 18.55C46.754 18.0592 46.0053 17.7768 45.2257 17.745C44.9638 17.7542 44.7032 17.7062 44.4618 17.6043C44.2204 17.5024 44.0042 17.3492 43.8281 17.1552C43.6521 16.9612 43.5205 16.7312 43.4426 16.4812C43.3646 16.2312 43.3423 15.9671 43.3769 15.7076C43.3769 13.907 43.3769 12.0828 43.3769 10.2822V3.62491H42.8554L25.6705 3.55377ZM37.7118 61.1243C40.2157 63.7587 41.6153 67.2515 41.6229 70.8852H38.1147C38.1147 70.5772 38.1147 70.3641 38.1147 70.1272C37.9808 68.4843 37.4677 66.8948 36.6155 65.4836C35.7633 64.0724 34.5953 62.8781 33.2034 61.9942C31.8114 61.1103 30.2334 60.561 28.5932 60.3896C26.9531 60.2181 25.2954 60.429 23.7506 61.0058C22.1535 61.6035 20.724 62.577 19.5829 63.8437C18.4417 65.1104 17.6227 66.6331 17.1949 68.2831C16.7671 69.9331 16.743 71.6618 17.125 73.323C17.507 74.9843 18.2837 76.5292 19.3893 77.827C20.5507 79.2011 20.5507 79.7221 19.3893 81.0963C18.9241 81.6087 18.6272 82.2512 18.5382 82.9373C18.4492 83.6235 18.5724 84.3204 18.8915 84.9344C19.201 85.595 19.7115 86.1409 20.3501 86.4941C20.9886 86.8473 21.7226 86.9895 22.4469 86.9007C24.2484 86.9007 24.6988 87.0666 25.0069 88.8672C25.3329 90.5636 25.531 92.2821 25.5995 94.0082C25.5995 97.7515 25.5995 101.471 25.5995 105.214V106.352H43.3532C43.3532 102.277 43.3532 98.2964 43.3532 94.2925C43.294 88.5867 45.2972 83.0513 48.9945 78.7035C49.4212 78.1586 49.8952 77.6137 50.2982 77.0451C51.6132 75.1729 52.2909 72.9277 52.2312 70.641C52.1714 68.3543 51.3773 66.1474 49.9663 64.3464C48.54 62.5663 46.5758 61.2952 44.367 60.723C42.1583 60.1508 39.8236 60.3082 37.7118 61.1717V61.1243ZM17.09 61.1243C19.2328 58.8723 22.055 57.3842 25.1244 56.8879C28.1938 56.3915 31.3414 56.9143 34.0853 58.3761C34.2614 58.4511 34.4508 58.4896 34.6423 58.4896C34.8337 58.4896 35.0231 58.4511 35.1993 58.3761C37.8805 56.9742 40.9423 56.4729 43.9309 56.9466C46.9194 57.4203 49.6758 58.8436 51.7915 61.0058L52.0997 61.2428C54.8966 57.7839 54.8492 51.553 52.0997 48.9232L51.4596 49.5155C49.4126 51.4039 46.8481 52.6383 44.0946 53.0604C41.3412 53.4825 38.5244 53.0731 36.0052 51.8846C35.6093 51.681 35.1704 51.5748 34.7252 51.5748C34.2799 51.5748 33.8412 51.681 33.4453 51.8846C31.0888 52.9893 28.4681 53.4064 25.8849 53.0879C23.3018 52.7693 20.8613 51.7281 18.8442 50.0841C18.299 49.6813 17.8011 49.2075 17.2797 48.7573C15.895 50.5215 15.1267 52.6905 15.0925 54.9326C15.0583 57.1746 15.7598 59.3661 17.09 61.1717V61.1243Z" fill="white"/>
<path d="M8.69903 48.0702L7.11096 51.2449L0 47.7149L1.58807 44.5402L8.69903 48.0702Z" fill="white"/>
<path d="M60.2535 48.0939L67.3645 44.5402L68.9526 47.6912L61.8416 51.2449L60.2535 48.0939Z" fill="white"/>
<path d="M0 62.2615L7.11096 58.7313L8.67531 61.8823L1.56435 65.4361L0 62.2615Z" fill="white"/>
<path d="M61.9128 58.8025L69.0237 62.3325L67.4592 65.5072L60.3483 61.9772L61.9128 58.8025Z" fill="white"/>
<path d="M3.36584 34.8266L5.57022 32.6233L10.785 37.8355L8.41464 39.9203L3.36584 34.8266Z" fill="white"/>
<path d="M58.381 37.8117L63.572 32.7417L65.6815 34.945L60.4669 40.1572L58.381 37.8117Z" fill="white"/>
<path d="M5.4992 77.3056L3.29468 75.1023L8.43837 69.9613L10.548 72.3305L5.4992 77.3056Z" fill="white"/>
<path d="M58.381 71.9987L60.4905 69.8901L65.7526 75.1497L63.572 77.1872L58.381 71.9987Z" fill="white"/>
<path d="M27.3772 47.857C26.2277 47.857 25.0896 47.6299 24.0282 47.1888C22.9668 46.7477 22.003 46.1013 21.1924 45.2867C20.3818 44.4721 19.7403 43.5053 19.3047 42.4421C18.8692 41.3788 18.6482 40.24 18.6544 39.0911H22.044C22.0971 40.4856 22.6768 41.8084 23.6663 42.793C24.6558 43.7776 25.9817 44.351 27.3772 44.398V47.857Z" fill="white"/>
<path d="M21.6646 70.9089H18.6781C18.6656 69.7622 18.8807 68.6245 19.3111 67.5615C19.7414 66.4985 20.3785 65.5314 21.1853 64.7161C21.9921 63.9009 22.9527 63.2537 24.0115 62.812C25.0703 62.3703 26.2061 62.1429 27.3534 62.1429V65.223C26.0631 65.7407 24.8506 66.4343 23.7505 67.2841C22.8967 68.3941 22.1952 69.6131 21.6646 70.9089Z" fill="white"/>
</g>
<defs>
<clipPath id="clip0_23_426">
<rect width="69" height="110" fill="white"/>
</clipPath>
</defs>
</svg>
